<svg width="146" height="64" viewBox="0 0 146 64" fill="none" xmlns="http://www.w3.org/2000/svg">
<g clip-path="url(#clip0_371_1700)">
<path d="M76.7639 1.54679C80.8862 1.54679 84.8867 2.35336 88.6536 3.94718C92.2905 5.48617 95.556 7.68754 98.3616 10.4931C101.166 13.2971 103.369 16.5642 104.907 20.2011L104.905 20.203C106.498 23.9684 107.307 27.9688 107.307 32.0927C107.307 36.2164 106.498 40.2165 104.905 43.9833C103.367 47.6201 101.166 50.8858 98.3606 53.6913C95.5566 56.4969 92.2902 58.6982 88.6516 60.2372C84.8865 61.8294 80.8851 62.6376 76.763 62.6376C72.6407 62.6376 68.6402 61.831 64.8733 60.2372C61.2364 58.6982 57.9699 56.4969 55.1643 53.6913C53.9276 52.453 52.807 51.1252 51.8098 49.7148C51.9632 49.3861 52.126 49.0478 52.2981 48.6972L52.303 48.6884C52.6099 48.059 52.896 47.4744 53.1653 46.9296C58.108 54.7608 66.8379 59.9744 76.7639 59.9745C92.1383 59.9745 104.647 47.467 104.647 32.0927C104.647 16.7182 92.1384 4.20987 76.7639 4.20987C70.5265 4.20992 64.7605 6.26898 60.1106 9.74307C59.594 8.9994 58.9531 8.34472 58.2219 7.81241C60.2634 6.25002 62.4885 4.95698 64.8743 3.94718C68.6396 2.35496 72.6417 1.54681 76.7639 1.54679ZM37.5969 24.2607C39.0482 24.2607 40.523 25.0782 41.5579 27.1571C42.408 28.8652 42.9729 31.7165 42.9729 35.4286C42.9729 39.1404 42.438 42.0133 41.5442 43.8153C40.7191 45.4812 39.1607 46.7714 37.3743 46.6649C36.6089 46.6211 36.0814 46.4896 35.3411 45.9872C34.8182 45.6318 34.6439 45.4249 34.3089 45.0351L34.2854 45.0224V55.248H31.1399V24.7343H34.2747L34.262 25.996H34.2747C34.7068 25.5138 34.8557 25.3414 35.4475 24.9062C36.0393 24.4898 36.7625 24.2607 37.5969 24.2607ZM53.7835 20.1513H53.7854C51.7455 25.7357 49.1139 35.9512 48.0774 42.7538C52.3106 34.9919 52.5409 34.7042 52.9104 34.7167C53.1217 34.6762 53.3283 34.9887 53.3206 35.5175C53.2861 37.3743 53.3064 35.9614 48.1038 46.6405C45.7226 51.497 45.0036 54.276 44.2239 54.4247C43.8686 54.4916 43.5509 53.4847 43.6214 52.5126C43.9752 47.476 45.2979 41.2399 47.5852 32.3066C49.9367 23.0527 51.3601 19.8698 53.7835 20.1513ZM60.0061 24.7665H63.1741V28.0624H60.0061V38.3202C60.0061 41.9728 60.3455 43.3144 61.4602 43.3144C62.2414 43.3143 62.638 42.7291 63.2298 41.9823L64.0354 45.2782C63.3152 45.8857 61.9909 46.8986 60.8137 46.7704C58.7816 46.5481 56.8821 45.8494 56.8821 40.6327V28.0644H55.1839V24.7685H56.8821L56.8841 24.7665V20.1405H60.0061V24.7665ZM136.297 27.8212C137.628 27.8212 138.854 28.0856 139.977 28.6132C141.098 29.1408 142.064 29.8789 142.873 30.8261C143.683 31.7731 144.295 32.8828 144.708 34.1523C145.122 35.4234 145.292 36.7967 145.22 38.2714H129.966C130.11 39.4112 130.473 40.4313 131.054 41.33C131.635 42.2285 132.379 42.939 133.285 43.4618C134.19 43.9831 135.195 44.2506 136.297 44.2616C137.496 44.2616 138.578 43.9501 139.544 43.3271C140.509 42.7039 141.287 41.846 141.874 40.7548L144.428 41.3485C143.708 42.9438 142.623 44.2477 141.173 45.2607C139.722 46.2736 138.096 46.7812 136.297 46.7812C134.642 46.7811 133.135 46.3554 131.773 45.5038C130.412 44.6521 129.325 43.5102 128.516 42.0761C127.707 40.6436 127.303 39.0576 127.303 37.3183C127.303 35.9985 127.536 34.7664 128.004 33.622C128.472 32.4776 129.116 31.4694 129.938 30.6005C130.76 29.7316 131.717 29.0501 132.808 28.5585C133.899 28.067 135.062 27.8212 136.297 27.8212ZM23.0852 24.2733C26.2382 24.2891 27.718 26.3451 27.718 32.537V42.6103C27.718 44.321 27.7754 45.1196 28.1321 45.4735V46.1952H25.0706C24.8859 45.8007 24.8322 45.6208 24.7727 45.2528V45.1796C24.2514 45.8856 23.1116 46.659 21.8343 46.6591C19.19 46.6591 17.6537 44.4453 17.6692 40.5878C17.6833 36.4373 19.3277 33.4229 24.5491 32.1767V31.7323C24.5053 28.8594 24.1336 27.4535 22.9798 27.4237C21.953 27.3975 21.4959 29.2803 21.3206 31.0429L18.1438 30.6171C18.4273 27.4218 19.774 24.2577 23.0852 24.2733ZM71.4993 24.2733C74.6539 24.2891 76.1321 26.3451 76.1321 32.537V42.6103C76.1321 44.3214 76.1915 45.1197 76.5501 45.4735V46.1952H73.4846C73.2999 45.8007 73.2463 45.6207 73.1868 45.2528V45.1796C72.6654 45.8856 71.5257 46.659 70.2483 46.6591C67.6041 46.6591 66.0683 44.4453 66.0823 40.5878C66.0964 36.4373 67.7418 33.4229 72.9632 32.1767V31.7323C72.9193 28.8594 72.5461 27.4535 71.3938 27.4237C70.3671 27.3976 69.9135 29.2803 69.7366 31.0429L66.5598 30.6171C66.8433 27.4218 68.1881 24.2577 71.4993 24.2733ZM8.34499 16.7694C11.545 16.79 14.1575 19.1686 15.1673 24.6747L12.176 25.3632C11.5279 22.2603 10.4615 19.9734 8.23855 20.0028C5.82122 20.0342 3.31277 22.8288 3.31277 31.7294C3.31283 40.6293 5.80811 43.3346 8.30984 43.3349C10.8117 43.3349 11.8325 39.8406 12.4885 37.3466L15.4788 38.2089C14.4925 43.1107 11.5732 46.6119 8.30593 46.6122C6.20956 46.6122 4.08772 45.4001 2.74441 43.2255C1.19443 40.7111 0.219017 36.8404 0.219017 31.6191C0.219076 26.8692 1.21679 22.8663 2.65554 20.3974C4.04582 18.0708 6.0764 16.7569 8.34499 16.7694ZM117.791 27.8241C119.147 27.8241 120.381 28.1544 121.497 28.8134C122.612 29.4725 123.5 30.3608 124.159 31.4755C124.818 32.5902 125.149 33.8258 125.149 35.1816V46.3144H122.631V35.6835C122.631 34.7005 122.391 33.8069 121.91 33.0038C121.431 32.2006 120.79 31.5581 119.987 31.079C119.183 30.6 118.289 30.3593 117.306 30.3593C116.323 30.3593 115.444 30.5984 114.635 31.079C113.826 31.5581 113.181 32.2007 112.701 33.0038C112.223 33.8068 111.982 34.7006 111.982 35.6835V46.3144H109.464V28.3271H111.982V30.8105C112.617 29.8993 113.444 29.1723 114.465 28.6337C115.484 28.0937 116.592 27.8242 117.791 27.8241ZM24.5647 35.1796C22.5029 35.8418 20.9476 37.2634 20.888 39.9482C20.8426 42.0318 21.2468 43.3614 22.4739 43.3319C23.1674 43.3163 24.0136 42.5964 24.5647 41.6337V35.1796ZM72.9768 35.1796C70.9167 35.8418 69.3627 37.2635 69.303 39.9482C69.2576 42.032 69.6595 43.3617 70.887 43.3319C71.5804 43.3163 72.4273 42.5963 72.9768 41.6337V35.1796ZM37.052 27.8232C36.5511 27.8404 36.2002 27.9228 35.6116 28.4081C35.1028 28.8418 34.788 29.3744 34.2854 30.3153V40.6112C34.7331 41.5707 35.0069 41.7698 35.4358 42.3114C35.9196 42.7545 36.4072 43.1034 37.0413 43.1034C37.9069 43.1033 38.4673 42.4737 38.9573 41.5751C39.4191 40.4996 39.7561 38.6883 39.7561 35.498C39.7561 32.7755 39.5307 30.9182 39.0032 29.5702C38.485 28.3318 37.7816 27.8012 37.052 27.8232ZM136.297 30.1054C135.181 30.1054 134.163 30.3783 133.24 30.9247C132.316 31.4711 131.562 32.2083 130.973 33.1366C130.386 34.0665 130.025 35.0996 129.894 36.2392H142.684C142.599 35.1246 142.261 34.1026 141.667 33.1728C141.074 32.2429 140.309 31.4987 139.374 30.9413C138.44 30.384 137.413 30.1054 136.297 30.1054ZM53.4329 10.9198C55.3461 10.9198 56.8977 12.4705 56.8977 14.3837C56.8976 16.2968 55.346 17.8466 53.4329 17.8466C51.52 17.8464 49.9702 16.2966 49.97 14.3837C49.97 12.4706 51.5199 10.92 53.4329 10.9198Z" fill="url(#paint0_linear_371_1700)"/>
</g>
<defs>
<linearGradient id="paint0_linear_371_1700" x1="144.727" y1="30.5454" x2="2.18172" y2="32" gradientUnits="userSpaceOnUse">
<stop stop-color="#D39C79"/>
<stop offset="0.5" stop-color="#AF6C29"/>
<stop offset="1" stop-color="#874C32"/>
</linearGradient>
<clipPath id="clip0_371_1700">
<rect width="145.455" height="64" fill="white"/>
</clipPath>
</defs>
</svg>
