<svg width="146" height="64" viewBox="0 0 146 64" fill="none" xmlns="http://www.w3.org/2000/svg">
<g clip-path="url(#clip0_292_1214)">
<path d="M76.7637 1.54688C80.886 1.54688 84.8864 2.35345 88.6533 3.94727C92.2902 5.48626 95.5558 7.68763 98.3613 10.4932C101.165 13.2972 103.369 16.5643 104.906 20.2012L104.904 20.2031C106.498 23.9684 107.307 27.9689 107.307 32.0928C107.307 36.2165 106.498 40.2166 104.904 43.9834C103.367 47.6202 101.166 50.8859 98.3604 53.6914C95.5563 56.497 92.2899 58.6983 88.6514 60.2373C84.8862 61.8295 80.8848 62.6376 76.7627 62.6377C72.6404 62.6377 68.64 61.8311 64.873 60.2373C61.2361 58.6983 57.9697 56.497 55.1641 53.6914C53.9274 52.4531 52.8068 51.1253 51.8096 49.7148C51.963 49.3862 52.1257 49.0479 52.2979 48.6973L52.3027 48.6885C52.6096 48.0591 52.8958 47.4745 53.165 46.9297C58.1077 54.7609 66.8377 59.9745 76.7637 59.9746C92.138 59.9746 104.646 47.4671 104.646 32.0928C104.646 16.7183 92.1382 4.20996 76.7637 4.20996C70.5263 4.21001 64.7602 6.26907 60.1104 9.74316C59.5937 8.99949 58.9528 8.34481 58.2217 7.8125C60.2631 6.25011 62.4882 4.95707 64.874 3.94727C68.6393 2.35505 72.6414 1.5469 76.7637 1.54688ZM37.5967 24.2607C39.0479 24.2608 40.5228 25.0783 41.5576 27.1572C42.4078 28.8653 42.9727 31.7166 42.9727 35.4287C42.9727 39.1405 42.4378 42.0134 41.5439 43.8154C40.7189 45.4813 39.1604 46.7715 37.374 46.665C36.6086 46.6212 36.0812 46.4897 35.3408 45.9873C34.8179 45.6319 34.6436 45.425 34.3086 45.0352L34.2852 45.0225V55.248H31.1396V24.7344H34.2744L34.2617 25.9961H34.2744C34.7065 25.5139 34.8555 25.3415 35.4473 24.9062C36.039 24.4899 36.7623 24.2607 37.5967 24.2607ZM53.7832 20.1514H53.7852C51.7452 25.7358 49.1136 35.9512 48.0771 42.7539C52.3104 34.992 52.5407 34.7043 52.9102 34.7168C53.1214 34.6763 53.328 34.9888 53.3203 35.5176C53.2859 37.3744 53.3061 35.9615 48.1035 46.6406C45.7223 51.4971 45.0033 54.2761 44.2236 54.4248C43.8683 54.4917 43.5507 53.4848 43.6211 52.5127C43.975 47.4761 45.2976 41.24 47.585 32.3066C49.9364 23.0528 51.3598 19.8699 53.7832 20.1514ZM60.0059 24.7666H63.1738V28.0625H60.0059V38.3203C60.0059 41.9729 60.3452 43.3145 61.46 43.3145C62.2411 43.3144 62.6377 42.7292 63.2295 41.9824L64.0352 45.2783C63.315 45.8858 61.9907 46.8987 60.8135 46.7705C58.7813 46.5482 56.8818 45.8495 56.8818 40.6328V28.0645H55.1836V24.7686H56.8818L56.8838 24.7666V20.1406H60.0059V24.7666ZM136.297 27.8213C137.628 27.8213 138.854 28.0857 139.977 28.6133C141.098 29.1409 142.064 29.879 142.873 30.8262C143.682 31.7732 144.295 32.8829 144.708 34.1523C145.121 35.4235 145.292 36.7968 145.22 38.2715H129.966C130.11 39.4113 130.473 40.4314 131.054 41.3301C131.635 42.2286 132.379 42.9391 133.285 43.4619C134.19 43.9831 135.195 44.2507 136.297 44.2617C137.496 44.2617 138.578 43.9502 139.544 43.3271C140.508 42.704 141.287 41.8461 141.874 40.7549L144.428 41.3486C143.708 42.9438 142.622 44.2478 141.173 45.2607C139.722 46.2737 138.096 46.7812 136.297 46.7812C134.642 46.7812 133.134 46.3555 131.772 45.5039C130.412 44.6522 129.325 43.5103 128.516 42.0762C127.706 40.6437 127.303 39.0577 127.303 37.3184C127.303 35.9986 127.536 34.7665 128.004 33.6221C128.472 32.4777 129.116 31.4695 129.938 30.6006C130.759 29.7317 131.716 29.0502 132.808 28.5586C133.899 28.0671 135.062 27.8213 136.297 27.8213ZM23.085 24.2734C26.2379 24.2892 27.7178 26.3452 27.7178 32.5371V42.6104C27.7178 44.321 27.7751 45.1197 28.1318 45.4736V46.1953H25.0703C24.8856 45.8008 24.832 45.6208 24.7725 45.2529V45.1797C24.2511 45.8857 23.1114 46.6591 21.834 46.6592C19.1897 46.6592 17.6534 44.4453 17.6689 40.5879C17.683 36.4374 19.3275 33.423 24.5488 32.1768V31.7324C24.505 28.8595 24.1334 27.4536 22.9795 27.4238C21.9527 27.3976 21.4957 29.2804 21.3203 31.043L18.1436 30.6172C18.427 27.4219 19.7738 24.2578 23.085 24.2734ZM71.499 24.2734C74.6537 24.2892 76.1318 26.3452 76.1318 32.5371V42.6104C76.1318 44.3215 76.1913 45.1198 76.5498 45.4736V46.1953H73.4844C73.2997 45.8008 73.246 45.6208 73.1865 45.2529V45.1797C72.6651 45.8857 71.5254 46.6591 70.248 46.6592C67.6038 46.6592 66.0681 44.4454 66.082 40.5879C66.0961 36.4374 67.7415 33.423 72.9629 32.1768V31.7324C72.9191 28.8595 72.5459 27.4536 71.3936 27.4238C70.3669 27.3977 69.9133 29.2804 69.7363 31.043L66.5596 30.6172C66.843 27.4219 68.1878 24.2578 71.499 24.2734ZM8.34473 16.7695C11.5447 16.7901 14.1572 19.1687 15.167 24.6748L12.1758 25.3633C11.5276 22.2604 10.4612 19.9734 8.23828 20.0029C5.82095 20.0342 3.3125 22.8289 3.3125 31.7295C3.31256 40.6294 5.80784 43.3347 8.30957 43.335C10.8114 43.335 11.8323 39.8407 12.4883 37.3467L15.4785 38.209C14.4922 43.1108 11.573 46.612 8.30566 46.6123C6.20929 46.6123 4.08745 45.4002 2.74414 43.2256C1.19417 40.7112 0.21875 36.8405 0.21875 31.6191C0.218809 26.8693 1.21653 22.8664 2.65527 20.3975C4.04555 18.0709 6.07613 16.757 8.34473 16.7695ZM117.791 27.8242C119.147 27.8242 120.381 28.1545 121.497 28.8135C122.612 29.4726 123.5 30.3609 124.159 31.4756C124.818 32.5903 125.148 33.8259 125.148 35.1816V46.3145H122.631V35.6836C122.631 34.7005 122.391 33.807 121.91 33.0039C121.431 32.2007 120.789 31.5582 119.986 31.0791C119.183 30.6001 118.289 30.3594 117.306 30.3594C116.323 30.3594 115.444 30.5985 114.635 31.0791C113.825 31.5582 113.18 32.2008 112.701 33.0039C112.222 33.8069 111.981 34.7007 111.981 35.6836V46.3145H109.464V28.3271H111.981V30.8105C112.617 29.8994 113.444 29.1724 114.465 28.6338C115.484 28.0938 116.592 27.8243 117.791 27.8242ZM24.5645 35.1797C22.5026 35.8419 20.9474 37.2635 20.8877 39.9482C20.8423 42.0318 21.2465 43.3615 22.4736 43.332C23.1672 43.3164 24.0133 42.5965 24.5645 41.6338V35.1797ZM72.9766 35.1797C70.9164 35.8419 69.3624 37.2636 69.3027 39.9482C69.2573 42.0321 69.6593 43.3618 70.8867 43.332C71.5802 43.3164 72.427 42.5964 72.9766 41.6338V35.1797ZM37.0518 27.8232C36.5508 27.8405 36.1999 27.9229 35.6113 28.4082C35.1025 28.8419 34.7877 29.3745 34.2852 30.3154V40.6113C34.7328 41.5708 35.0066 41.7699 35.4355 42.3115C35.9193 42.7546 36.4069 43.1035 37.041 43.1035C37.9067 43.1034 38.467 42.4738 38.957 41.5752C39.4188 40.4996 39.7558 38.6884 39.7559 35.498C39.7559 32.7756 39.5305 30.9183 39.0029 29.5703C38.4847 28.3319 37.7813 27.8013 37.0518 27.8232ZM136.297 30.1055C135.181 30.1055 134.163 30.3784 133.239 30.9248C132.316 31.4712 131.561 32.2084 130.973 33.1367C130.386 34.0666 130.025 35.0997 129.894 36.2393H142.684C142.599 35.1247 142.26 34.1027 141.667 33.1729C141.074 32.2429 140.309 31.4988 139.374 30.9414C138.439 30.384 137.413 30.1055 136.297 30.1055ZM53.4326 10.9199C55.3458 10.9199 56.8975 12.4706 56.8975 14.3838C56.8973 16.2968 55.3457 17.8467 53.4326 17.8467C51.5197 17.8465 49.9699 16.2967 49.9697 14.3838C49.9697 12.4707 51.5196 10.9201 53.4326 10.9199Z" fill="url(#paint0_linear_292_1214)"/>
</g>
<defs>
<linearGradient id="paint0_linear_292_1214" x1="144.727" y1="30.5455" x2="2.18145" y2="32.0001" gradientUnits="userSpaceOnUse">
<stop stop-color="#D39C79"/>
<stop offset="0.5" stop-color="#AF6C29"/>
<stop offset="1" stop-color="#874C32"/>
</linearGradient>
<clipPath id="clip0_292_1214">
<rect width="145.455" height="64" fill="white"/>
</clipPath>
</defs>
</svg>
