<svg width="40" height="40" viewBox="0 0 40 40" fill="none" xmlns="http://www.w3.org/2000/svg">
<path d="M28.2812 5.46875H2.34375C1.48047 5.46875 0.78125 6.16797 0.78125 7.03125V37.6562C0.78125 38.5195 1.48047 39.2188 2.34375 39.2188H28.2812C29.1445 39.2188 29.8438 38.5195 29.8438 37.6562V7.03125C29.8438 6.16797 29.1445 5.46875 28.2812 5.46875Z" fill="white"/>
<path d="M39.2188 34.0625V37.6562C39.2188 38.5195 38.5195 39.2188 37.6562 39.2188H36.0938C35.2305 39.2188 34.5312 38.5195 34.5312 37.6562V34.0625H39.2188Z" fill="#FEE100"/>
<path d="M39.2188 14.0047V34.0625H34.5312V14.0047C34.5312 13.2484 34.5992 12.4961 34.7336 11.7555C34.7359 11.743 34.7383 11.7312 34.7406 11.7188H39.0094C39.1484 12.4711 39.2188 13.2359 39.2188 14.0047Z" fill="#FEE100"/>
<path d="M39.009 11.7187H34.7402C34.8746 10.9906 35.073 10.2742 35.3332 9.57812L36.8746 5.46874C36.947 5.66179 36.4863 4.43359 38.416 9.57812C38.6762 10.2742 38.8746 10.9906 39.009 11.7187Z" fill="#FEE100"/>
<path d="M23.5938 7.03125H7.03125C7.03125 5.93828 7.03125 4.99922 7.03125 3.90625H11.4844C11.8461 2.12344 13.4227 0.78125 15.3125 0.78125C17.2023 0.78125 18.7789 2.12344 19.1406 3.90625H23.5938C23.5938 4.99922 23.5938 5.93828 23.5938 7.03125Z" fill="#FEE100"/>
<path d="M7.03125 29.375C7.89453 29.375 8.59375 30.0742 8.59375 30.9375C8.59375 31.8008 7.89453 32.5 7.03125 32.5C6.16797 32.5 5.46875 31.8008 5.46875 30.9375C5.46875 30.0742 6.16797 29.375 7.03125 29.375Z" fill="#FEE100"/>
<path d="M22.8125 16.875C22.8125 17.3062 23.1625 17.6562 23.5938 17.6562C24.025 17.6562 24.375 17.3062 24.375 16.875C24.375 16.4437 24.025 16.0938 23.5938 16.0938C23.1625 16.0938 22.8125 16.4437 22.8125 16.875Z" fill="#141C21"/>
<path d="M2.34375 40H28.2812C29.5736 40 30.625 38.9486 30.625 37.6562V7.03125C30.625 5.73891 29.5736 4.6875 28.2812 4.6875H24.375V3.90625C24.375 3.47484 24.0252 3.125 23.5938 3.125H19.733C19.0806 1.28109 17.3139 0 15.3125 0C13.3111 0 11.5444 1.28109 10.892 3.125H7.03125C6.59984 3.125 6.25 3.47484 6.25 3.90625V4.6875H2.34375C1.05141 4.6875 0 5.73891 0 7.03125V37.6562C0 38.9486 1.05141 40 2.34375 40ZM7.8125 4.6875H11.4844C11.856 4.6875 12.1761 4.4257 12.2501 4.06156C12.5438 2.61352 13.8318 1.5625 15.3125 1.5625C16.7932 1.5625 18.0812 2.61352 18.3749 4.06156C18.4489 4.4257 18.769 4.6875 19.1406 4.6875H22.8125V6.25H7.8125V4.6875ZM1.5625 7.03125C1.5625 6.60047 1.91297 6.25 2.34375 6.25H6.25V7.03125C6.25 7.46266 6.59984 7.8125 7.03125 7.8125H23.5938C24.0252 7.8125 24.375 7.46266 24.375 7.03125V6.25H28.2812C28.712 6.25 29.0625 6.60047 29.0625 7.03125V37.6562C29.0625 38.087 28.712 38.4375 28.2812 38.4375H2.34375C1.91297 38.4375 1.5625 38.087 1.5625 37.6562V7.03125Z" fill="#141C21"/>
<path d="M6.47889 17.4274C6.63146 17.5799 6.83131 17.6563 7.03131 17.6563C7.23131 17.6563 7.43115 17.5799 7.58373 17.4274L10.7087 14.3024C11.0138 13.9973 11.0138 13.5027 10.7087 13.1975C10.4036 12.8925 9.90904 12.8925 9.60381 13.1975L7.03131 15.7701L6.02123 14.76C5.71607 14.455 5.22154 14.455 4.91631 14.76C4.61123 15.0651 4.61123 15.5598 4.91631 15.8649L6.47889 17.4274Z" fill="#141C21"/>
<path d="M6.47889 25.2399C6.63146 25.3924 6.83131 25.4687 7.03131 25.4687C7.23131 25.4687 7.43115 25.3924 7.58373 25.2399L10.7087 22.1149C11.0138 21.8098 11.0138 21.3152 10.7087 21.01C10.4036 20.705 9.90904 20.705 9.60381 21.01L7.03131 23.5826L6.02123 22.5725C5.71607 22.2675 5.22154 22.2675 4.91631 22.5725C4.61123 22.8776 4.61123 23.3723 4.91631 23.6774L6.47889 25.2399Z" fill="#141C21"/>
<path d="M7.03125 28.5938C5.73891 28.5938 4.6875 29.6452 4.6875 30.9375C4.6875 32.2298 5.73891 33.2812 7.03125 33.2812C8.32359 33.2812 9.375 32.2298 9.375 30.9375C9.375 29.6452 8.32359 28.5938 7.03125 28.5938ZM7.03125 31.7188C6.60047 31.7188 6.25 31.3683 6.25 30.9375C6.25 30.5067 6.60047 30.1562 7.03125 30.1562C7.46203 30.1562 7.8125 30.5067 7.8125 30.9375C7.8125 31.3683 7.46203 31.7188 7.03125 31.7188Z" fill="#141C21"/>
<path d="M15.3125 14.5312H25.1562C25.5877 14.5312 25.9375 14.1814 25.9375 13.75C25.9375 13.3186 25.5877 12.9688 25.1562 12.9688H15.3125C14.8811 12.9688 14.5312 13.3186 14.5312 13.75C14.5312 14.1814 14.8811 14.5312 15.3125 14.5312Z" fill="#141C21"/>
<path d="M15.3125 17.6562H20.4688C20.9002 17.6562 21.25 17.3064 21.25 16.875C21.25 16.4436 20.9002 16.0938 20.4688 16.0938H15.3125C14.8811 16.0938 14.5312 16.4436 14.5312 16.875C14.5312 17.3064 14.8811 17.6562 15.3125 17.6562Z" fill="#141C21"/>
<path d="M15.3125 22.3438H25.1562C25.5877 22.3438 25.9375 21.9939 25.9375 21.5625C25.9375 21.1311 25.5877 20.7812 25.1562 20.7812H15.3125C14.8811 20.7812 14.5312 21.1311 14.5312 21.5625C14.5312 21.9939 14.8811 22.3438 15.3125 22.3438Z" fill="#141C21"/>
<path d="M15.3125 25.4688H22.0312C22.4627 25.4688 22.8125 25.1189 22.8125 24.6875C22.8125 24.2561 22.4627 23.9062 22.0312 23.9062H15.3125C14.8811 23.9062 14.5312 24.2561 14.5312 24.6875C14.5312 25.1189 14.8811 25.4688 15.3125 25.4688Z" fill="#141C21"/>
<path d="M15.3125 30.1562H25.1562C25.5877 30.1562 25.9375 29.8064 25.9375 29.375C25.9375 28.9436 25.5877 28.5938 25.1562 28.5938H15.3125C14.8811 28.5938 14.5312 28.9436 14.5312 29.375C14.5312 29.8064 14.8811 30.1562 15.3125 30.1562Z" fill="#141C21"/>
<path d="M15.3125 33.2812H22.0312C22.4627 33.2812 22.8125 32.9314 22.8125 32.5C22.8125 32.0686 22.4627 31.7188 22.0312 31.7188H15.3125C14.8811 31.7188 14.5312 32.0686 14.5312 32.5C14.5312 32.9314 14.8811 33.2812 15.3125 33.2812Z" fill="#141C21"/>
<path d="M39.1467 9.30047L37.6065 5.19445C37.4922 4.88953 37.2007 4.6875 36.8751 4.6875C36.875 4.6875 36.875 4.6875 36.875 4.6875C36.5494 4.6875 36.2579 4.88945 36.1435 5.19437L34.6017 9.30469C34.0498 10.7818 33.75 12.3702 33.75 14.0047V37.6562C33.75 38.9486 34.8014 40 36.0938 40H37.6562C38.9486 40 40 38.9486 40 37.6562V14.0047C40 12.3777 39.7027 10.7885 39.1467 9.30047ZM35.3125 14.0047C35.3125 13.5021 35.3455 12.9976 35.4092 12.5H38.3403C38.4044 12.9989 38.4374 13.5027 38.4374 14.0047V33.2812H35.3124V14.0047H35.3125ZM36.8748 7.69359C36.9577 7.91422 36.5749 6.8943 37.6846 9.85156C37.8175 10.2073 37.933 10.5704 38.0316 10.9375H35.7184C35.817 10.5705 35.9323 10.2077 36.0651 9.85242L36.8748 7.69359ZM37.6562 38.4375H36.0938C35.663 38.4375 35.3125 38.087 35.3125 37.6562V34.8438H38.4375V37.6562C38.4375 38.087 38.087 38.4375 37.6562 38.4375Z" fill="#141C21"/>
</svg>
