<svg width="40" height="40" viewBox="0 0 40 40" fill="none" xmlns="http://www.w3.org/2000/svg">
<path d="M34.7998 25.0687C34.7998 26.2557 34.4478 27.416 33.7882 28.4028C33.1286 29.3896 32.1912 30.1587 31.0945 30.6126C29.9977 31.0665 28.791 31.185 27.627 30.953C26.4629 30.721 25.3938 30.1489 24.555 29.3092C23.7161 28.4694 23.1451 27.3997 22.9143 26.2354C22.6835 25.0711 22.8032 23.8645 23.2583 22.7683C23.7134 21.672 24.4834 20.7354 25.4709 20.0769C26.4585 19.4183 27.6191 19.0675 28.8061 19.0687C29.5937 19.0687 30.3736 19.224 31.1012 19.5256C31.8288 19.8272 32.4898 20.2692 33.0465 20.8265C33.6031 21.3837 34.0445 22.0452 34.3454 22.7731C34.6462 23.501 34.8006 24.2811 34.7998 25.0687Z" fill="#FEE100"/>
<path d="M32.0816 30.55V36.0625L28.8816 34.1875L25.6816 36.0625V30.55H32.0816Z" fill="#FEE100"/>
<path d="M9.58107 16C9.43752 15.9949 9.30013 15.9404 9.19202 15.8459C9.0839 15.7513 9.01167 15.6224 8.98746 15.4808C8.96325 15.3392 8.98855 15.1936 9.0591 15.0685C9.12964 14.9434 9.24114 14.8464 9.37482 14.7938C10.2832 14.4466 11.163 14.0286 12.0061 13.5438C11.8498 12.2375 12.2436 10.025 13.2561 8.89379C13.4973 8.60881 13.8112 8.39444 14.1644 8.2734C14.5176 8.15236 14.897 8.12917 15.2623 8.20629C15.3057 8.21208 15.3479 8.22474 15.3873 8.24379C15.6428 8.35165 15.863 8.52878 16.0232 8.75518C16.1833 8.98158 16.277 9.24823 16.2936 9.52504C16.4248 11.0063 14.7061 13.1938 13.4311 14.1C13.4774 14.237 13.5511 14.3631 13.6479 14.4706C13.7446 14.578 13.8622 14.6646 13.9936 14.725C14.6873 14.925 16.0061 13.7313 16.8811 12.9438C17.2408 12.6001 17.6228 12.2807 18.0248 11.9875C18.1159 11.9259 18.2217 11.8894 18.3314 11.8817C18.4412 11.874 18.551 11.8954 18.6498 11.9438C18.7495 11.9924 18.8344 12.0666 18.8959 12.1589C18.9574 12.2511 18.9933 12.3581 18.9998 12.4688V13.0438C18.959 13.3612 18.959 13.6826 18.9998 14C19.1983 13.7895 19.3801 13.5638 19.5436 13.325C19.9436 12.7625 20.4998 11.9875 21.2373 12.3875C21.29 12.4135 21.3384 12.4472 21.3811 12.4875C21.6873 12.7875 21.6311 13.2 21.5748 13.6375C21.5748 13.7563 21.5373 13.9438 21.5311 14.0875C22.0304 13.9746 22.4964 13.7461 22.8915 13.4205C23.2866 13.0949 23.5998 12.6811 23.8061 12.2125C23.8309 12.134 23.871 12.0612 23.9241 11.9983C23.9772 11.9353 24.0422 11.8835 24.1154 11.8457C24.1886 11.808 24.2685 11.7851 24.3505 11.7783C24.4326 11.7715 24.5152 11.781 24.5936 11.8063C24.6721 11.8311 24.7449 11.8713 24.8078 11.9243C24.8708 11.9774 24.9226 12.0424 24.9604 12.1156C24.9981 12.1888 25.021 12.2687 25.0278 12.3508C25.0346 12.4328 25.0251 12.5154 24.9998 12.5938C24.7056 13.3367 24.2166 13.9866 23.5841 14.4749C22.9517 14.9633 22.1992 15.2721 21.4061 15.3688C21.2606 15.375 21.1155 15.3497 20.9807 15.2947C20.8458 15.2397 20.7245 15.1562 20.6248 15.05C20.4726 14.8733 20.3749 14.6562 20.3436 14.425C20.2033 14.6695 20.0063 14.8766 19.7692 15.0289C19.532 15.1812 19.2617 15.2742 18.9811 15.3C18.8195 15.2967 18.6604 15.2607 18.5132 15.1941C18.366 15.1275 18.2339 15.0317 18.1248 14.9125C17.8848 14.6169 17.7506 14.2495 17.7436 13.8688C16.5373 14.9563 15.0373 16.3063 13.6748 15.925C13.3885 15.8292 13.1258 15.6739 12.9038 15.4692C12.6819 15.2645 12.5059 15.0152 12.3873 14.7375C11.5591 15.207 10.6962 15.6123 9.80607 15.95C9.73452 15.9796 9.65839 15.9965 9.58107 16ZM14.8498 9.37504C14.7229 9.38212 14.5988 9.41582 14.4858 9.47397C14.3727 9.53211 14.2732 9.6134 14.1936 9.71254C13.5773 10.5678 13.2351 11.5899 13.2123 12.6438C14.1561 11.7688 15.1311 10.325 15.0873 9.60004C15.0866 9.55671 15.0755 9.51418 15.0548 9.47609C15.0341 9.438 15.0045 9.40548 14.9686 9.38129L14.8498 9.37504Z" fill="#141C21"/>
<path d="M23.0625 36.4438H5.21875C5.05299 36.4438 4.89402 36.3779 4.77681 36.2607C4.6596 36.1435 4.59375 35.9845 4.59375 35.8188V3.94379C4.59375 3.77803 4.6596 3.61906 4.77681 3.50185C4.89402 3.38463 5.05299 3.31879 5.21875 3.31879H24.1625C24.3234 3.31943 24.4779 3.38211 24.5937 3.49379L29.2375 7.94379C29.2984 8.00188 29.347 8.07168 29.3803 8.14901C29.4136 8.22634 29.4309 8.3096 29.4313 8.39379V16.7688C29.4313 16.9345 29.3654 17.0935 29.2482 17.2107C29.131 17.3279 28.972 17.3938 28.8063 17.3938C28.6405 17.3938 28.4815 17.3279 28.3643 17.2107C28.2471 17.0935 28.1813 16.9345 28.1813 16.7688V8.64379L23.9125 4.54379H5.84375V35.1688H23.0625C23.2283 35.1688 23.3872 35.2346 23.5044 35.3518C23.6217 35.4691 23.6875 35.628 23.6875 35.7938C23.6875 35.9595 23.6217 36.1185 23.5044 36.2357C23.3872 36.3529 23.2283 36.4188 23.0625 36.4188V36.4438Z" fill="#141C21"/>
<path d="M28.8059 8.99378H25.6809C25.4005 8.99709 25.1223 8.94473 24.8624 8.83973C24.6024 8.73474 24.3659 8.57919 24.1665 8.38212C23.9671 8.18505 23.8088 7.95036 23.7007 7.69166C23.5927 7.43295 23.5371 7.15538 23.5371 6.87503V3.91878C23.5372 3.7961 23.5734 3.67616 23.6412 3.57391C23.709 3.47166 23.8054 3.39162 23.9184 3.34378C24.0308 3.29647 24.1546 3.2831 24.2746 3.30531C24.3945 3.32752 24.5053 3.38435 24.5934 3.46878L29.2371 7.91878C29.3249 8.00597 29.3848 8.11725 29.4093 8.23853C29.4338 8.3598 29.4217 8.48562 29.3746 8.60003C29.3291 8.71436 29.2509 8.81272 29.1497 8.88276C29.0485 8.95281 28.9289 8.99143 28.8059 8.99378ZM24.7871 5.38128V6.87503C24.7871 6.98882 24.8096 7.10149 24.8534 7.20654C24.8971 7.3116 24.9612 7.40696 25.0419 7.48713C25.1227 7.5673 25.2185 7.6307 25.3239 7.67368C25.4292 7.71665 25.5421 7.73835 25.6559 7.73753H27.2496L24.7871 5.38128Z" fill="#141C21"/>
<path d="M16.6562 26.9875H10.4062C10.2405 26.9875 10.0815 26.9217 9.96431 26.8045C9.8471 26.6873 9.78125 26.5283 9.78125 26.3625C9.78125 26.1968 9.8471 26.0378 9.96431 25.9206C10.0815 25.8034 10.2405 25.7375 10.4062 25.7375H16.6562C16.822 25.7375 16.981 25.8034 17.0982 25.9206C17.2154 26.0378 17.2812 26.1968 17.2812 26.3625C17.2812 26.5283 17.2154 26.6873 17.0982 26.8045C16.981 26.9217 16.822 26.9875 16.6562 26.9875Z" fill="#141C21"/>
<path d="M12.7754 29.9062H10.4316C10.2659 29.9062 10.1069 29.8404 9.9897 29.7232C9.87249 29.606 9.80664 29.447 9.80664 29.2812C9.80664 29.1155 9.87249 28.9565 9.9897 28.8393C10.1069 28.7221 10.2659 28.6562 10.4316 28.6562H12.7754C12.9412 28.6562 13.1001 28.7221 13.2173 28.8393C13.3345 28.9565 13.4004 29.1155 13.4004 29.2812C13.4004 29.447 13.3345 29.606 13.2173 29.7232C13.1001 29.8404 12.9412 29.9062 12.7754 29.9062Z" fill="#141C21"/>
<path d="M15.2684 29.9062H15.1309C14.9651 29.9062 14.8061 29.8404 14.6889 29.7232C14.5717 29.606 14.5059 29.447 14.5059 29.2812C14.5059 29.1155 14.5717 28.9565 14.6889 28.8393C14.8061 28.7221 14.9651 28.6562 15.1309 28.6562H15.2684C15.4341 28.6562 15.5931 28.7221 15.7103 28.8393C15.8275 28.9565 15.8934 29.1155 15.8934 29.2812C15.8934 29.447 15.8275 29.606 15.7103 29.7232C15.5931 29.8404 15.4341 29.9062 15.2684 29.9062Z" fill="#141C21"/>
<path d="M19.2629 29.9062H17.3379C17.1721 29.9062 17.0132 29.8404 16.8959 29.7232C16.7787 29.606 16.7129 29.447 16.7129 29.2812C16.7129 29.1155 16.7787 28.9565 16.8959 28.8393C17.0132 28.7221 17.1721 28.6562 17.3379 28.6562H19.2629C19.4287 28.6562 19.5876 28.7221 19.7048 28.8393C19.822 28.9565 19.8879 29.1155 19.8879 29.2812C19.8879 29.447 19.822 29.606 19.7048 29.7232C19.5876 29.8404 19.4287 29.9062 19.2629 29.9062Z" fill="#141C21"/>
<path d="M12.7754 20.8375H10.4316C10.2659 20.8375 10.1069 20.7717 9.9897 20.6545C9.87249 20.5373 9.80664 20.3783 9.80664 20.2125C9.80664 20.0468 9.87249 19.8878 9.9897 19.7706C10.1069 19.6534 10.2659 19.5875 10.4316 19.5875H12.7754C12.9412 19.5875 13.1001 19.6534 13.2173 19.7706C13.3345 19.8878 13.4004 20.0468 13.4004 20.2125C13.4004 20.3783 13.3345 20.5373 13.2173 20.6545C13.1001 20.7717 12.9412 20.8375 12.7754 20.8375Z" fill="#141C21"/>
<path d="M16.6564 20.8375H15.5127C15.3469 20.8375 15.188 20.7717 15.0708 20.6545C14.9535 20.5373 14.8877 20.3783 14.8877 20.2125C14.8877 20.0468 14.9535 19.8878 15.0708 19.7706C15.188 19.6534 15.3469 19.5875 15.5127 19.5875H16.6564C16.8222 19.5875 16.9812 19.6534 17.0984 19.7706C17.2156 19.8878 17.2814 20.0468 17.2814 20.2125C17.2814 20.3783 17.2156 20.5373 17.0984 20.6545C16.9812 20.7717 16.8222 20.8375 16.6564 20.8375Z" fill="#141C21"/>
<path d="M11.6004 23.85H10.4316C10.2659 23.85 10.1069 23.7842 9.9897 23.667C9.87249 23.5498 9.80664 23.3908 9.80664 23.225C9.80664 23.0593 9.87249 22.9003 9.9897 22.7831C10.1069 22.6659 10.2659 22.6 10.4316 22.6H11.6004C11.7662 22.6 11.9251 22.6659 12.0423 22.7831C12.1595 22.9003 12.2254 23.0593 12.2254 23.225C12.2254 23.3908 12.1595 23.5498 12.0423 23.667C11.9251 23.7842 11.7662 23.85 11.6004 23.85Z" fill="#141C21"/>
<path d="M18.1691 23.85H13.9004C13.7346 23.85 13.5757 23.7842 13.4584 23.667C13.3412 23.5498 13.2754 23.3908 13.2754 23.225C13.2754 23.0593 13.3412 22.9003 13.4584 22.7831C13.5757 22.6659 13.7346 22.6 13.9004 22.6H18.1691C18.3349 22.6 18.4939 22.6659 18.6111 22.7831C18.7283 22.9003 18.7941 23.0593 18.7941 23.225C18.7941 23.3908 18.7283 23.5498 18.6111 23.667C18.4939 23.7842 18.3349 23.85 18.1691 23.85Z" fill="#141C21"/>
<path d="M28.8061 31.6938C27.4955 31.695 26.214 31.3075 25.1237 30.5803C24.0334 29.8531 23.1833 28.8188 22.6809 27.6084C22.1785 26.3979 22.0464 25.0657 22.3013 23.7801C22.5563 22.4946 23.1867 21.3136 24.113 20.3864C25.0393 19.4593 26.2197 18.8277 27.505 18.5715C28.7903 18.3154 30.1227 18.4462 31.3336 18.9475C32.5446 19.4487 33.5796 20.2979 34.3079 21.3875C35.0361 22.4771 35.4248 23.7582 35.4248 25.0688C35.4215 26.8238 34.7233 28.506 33.483 29.7475C32.2426 30.9891 30.561 31.6888 28.8061 31.6938ZM28.8061 19.6938C27.7427 19.6926 26.7029 20.0067 25.8182 20.5966C24.9334 21.1865 24.2435 22.0255 23.8358 23.0075C23.428 23.9896 23.3206 25.0705 23.5273 26.1136C23.734 27.1566 24.2454 28.1149 24.9969 28.8673C25.7484 29.6196 26.7061 30.1321 27.7489 30.34C28.7917 30.5479 29.8728 30.4419 30.8553 30.0352C31.8378 29.6286 32.6776 28.9397 33.2685 28.0556C33.8594 27.1716 34.1748 26.1321 34.1748 25.0688C34.1732 23.6448 33.6072 22.2796 32.6009 21.2721C31.5946 20.2646 30.23 19.6971 28.8061 19.6938Z" fill="#141C21"/>
<path d="M30.5311 28.5438C30.3073 28.5488 30.0879 28.4808 29.9061 28.35L28.7873 27.5313L27.6873 28.35C27.5098 28.4777 27.2966 28.5464 27.078 28.5464C26.8593 28.5464 26.6461 28.4777 26.4686 28.35C26.2922 28.2229 26.1608 28.043 26.0934 27.8363C26.026 27.6295 26.026 27.4067 26.0936 27.2L26.5248 25.875L25.3998 25.0625C25.2223 24.9328 25.0906 24.7499 25.0237 24.5404C24.9569 24.3309 24.9583 24.1055 25.0279 23.8969C25.0974 23.6882 25.2314 23.5071 25.4106 23.3796C25.5898 23.2521 25.8049 23.1848 26.0248 23.1875H27.4123L27.8248 21.875C27.8913 21.6673 28.0223 21.4863 28.1988 21.3581C28.3753 21.23 28.588 21.1615 28.8061 21.1625C29.0242 21.1615 29.2369 21.23 29.4134 21.3581C29.5899 21.4863 29.7209 21.6673 29.7873 21.875L30.2123 23.1938H31.5998C31.8218 23.1867 32.0401 23.2515 32.2223 23.3784C32.4044 23.5054 32.5408 23.6878 32.611 23.8984C32.6812 24.1091 32.6816 24.3368 32.612 24.5476C32.5424 24.7585 32.4066 24.9413 32.2248 25.0688L31.1061 25.8813L31.5311 27.2063C31.5816 27.3608 31.5947 27.5251 31.5693 27.6856C31.5438 27.8461 31.4806 27.9983 31.3847 28.1295C31.2889 28.2608 31.1632 28.3674 31.018 28.4405C30.8728 28.5136 30.7124 28.5512 30.5498 28.55L30.5311 28.5438ZM26.6811 24.4438L27.3873 24.9563C27.5633 25.0867 27.694 25.269 27.7613 25.4774C27.8285 25.6859 27.8289 25.9101 27.7623 26.1188L27.4998 26.9438L28.2061 26.4313C28.383 26.305 28.595 26.2372 28.8123 26.2372C29.0297 26.2372 29.2417 26.305 29.4186 26.4313L30.1248 26.95L29.8561 26.1188C29.7884 25.9118 29.7876 25.6887 29.8538 25.4811C29.92 25.2736 30.0498 25.0922 30.2248 24.9625L30.9373 24.45H30.0623C29.8448 24.4533 29.6318 24.3872 29.4542 24.2614C29.2767 24.1355 29.1438 23.9564 29.0748 23.75L28.8061 22.9188L28.5373 23.75C28.4692 23.9567 28.3377 24.1367 28.1617 24.2646C27.9856 24.3924 27.7737 24.4617 27.5561 24.4625L26.6811 24.4438Z" fill="#141C21"/>
<path d="M32.0063 36.6875C31.8962 36.6864 31.7884 36.6562 31.6938 36.6L28.8063 34.9125L25.9188 36.6C25.8238 36.6549 25.716 36.6838 25.6063 36.6838C25.4966 36.6838 25.3888 36.6549 25.2938 36.6C25.2028 36.5432 25.128 36.4639 25.0766 36.3698C25.0251 36.2756 24.9988 36.1698 25 36.0625V30.55C25 30.3843 25.0659 30.2253 25.1831 30.1081C25.3003 29.9909 25.4593 29.925 25.625 29.925C25.7908 29.925 25.9498 29.9909 26.067 30.1081C26.1842 30.2253 26.25 30.3843 26.25 30.55V35L28.5125 33.675C28.6076 33.6202 28.7153 33.5913 28.825 33.5913C28.9348 33.5913 29.0425 33.6202 29.1375 33.675L31.3813 35V30.55C31.3813 30.3843 31.4471 30.2253 31.5644 30.1081C31.6816 29.9909 31.8405 29.925 32.0063 29.925C32.1721 29.925 32.331 29.9909 32.4482 30.1081C32.5654 30.2253 32.6313 30.3843 32.6313 30.55V36.0625C32.6313 36.2283 32.5654 36.3873 32.4482 36.5045C32.331 36.6217 32.1721 36.6875 32.0063 36.6875Z" fill="#141C21"/>
</svg>
