<svg width="156" height="109" viewBox="0 0 156 109" fill="none" xmlns="http://www.w3.org/2000/svg">
<g opacity="0.05">
<mask id="path-1-outside-1_489_327" maskUnits="userSpaceOnUse" x="-0.859375" y="-0.263672" width="157" height="109" fill="black">
<rect fill="white" x="-0.859375" y="-0.263672" width="157" height="109"/>
<path d="M72.7041 54.1006C72.7041 71.3369 69.6523 84.4961 63.5488 93.5781C57.4941 102.66 48.5342 107.201 36.6689 107.201C24.8037 107.201 15.8926 102.685 9.93555 93.6514C3.97852 84.6182 1 71.4346 1 54.1006C1 36.376 3.88086 23.0947 9.64258 14.2568C15.4531 5.41895 24.6084 1 37.1084 1C49.2666 1 58.2266 5.46777 63.9883 14.4033C69.7988 23.3389 72.7041 36.5713 72.7041 54.1006ZM59.3008 54.1006C59.3008 44.1396 58.5439 36.0586 57.0303 29.8574C55.5654 23.6074 53.1973 19.0176 49.9258 16.0879C46.6543 13.1582 42.3818 11.6934 37.1084 11.6934C31.7373 11.6934 27.3672 13.1338 23.998 16.0146C20.6289 18.8955 18.1631 23.4609 16.6006 29.7109C15.0869 35.9121 14.3301 44.042 14.3301 54.1006C14.3301 63.8662 15.1113 71.874 16.6738 78.124C18.2852 84.374 20.751 88.9883 24.0713 91.9668C27.3916 94.9453 31.6396 96.4346 36.8154 96.4346C44.5791 96.4346 50.2676 92.9678 53.8809 86.0342C57.4941 79.1006 59.3008 68.4561 59.3008 54.1006ZM154.735 94.5303V105.736H90.0625V94.5303H116.356V15.1357L93.0654 31.7617V19.3105L117.455 2.53809H129.613V94.5303H154.735Z"/>
</mask>
<path d="M63.5488 93.5781L62.7188 93.0203L62.7168 93.0234L63.5488 93.5781ZM9.64258 14.2568L8.80699 13.7075L8.80488 13.7107L9.64258 14.2568ZM63.9883 14.4033L63.1478 14.9452L63.1499 14.9485L63.9883 14.4033ZM57.0303 29.8574L56.0566 30.0856L56.0588 30.0946L57.0303 29.8574ZM16.6006 29.7109L15.6304 29.4684L15.6291 29.4738L16.6006 29.7109ZM16.6738 78.124L15.7037 78.3666L15.7055 78.3737L16.6738 78.124ZM71.7041 54.1006C71.7041 71.2435 68.6646 84.173 62.7188 93.0203L64.3788 94.1359C70.6401 84.8192 73.7041 71.4304 73.7041 54.1006H71.7041ZM62.7168 93.0234C56.8659 101.8 48.2343 106.201 36.6689 106.201V108.201C48.8341 108.201 58.1224 103.521 64.3809 94.1328L62.7168 93.0234ZM36.6689 106.201C25.1014 106.201 16.5222 101.823 10.7704 93.1008L9.10073 94.2019C15.263 103.546 24.506 108.201 36.6689 108.201V106.201ZM10.7704 93.1008C4.96802 84.3022 2 71.3464 2 54.1006H0C0 71.5228 2.98901 84.9341 9.10073 94.2019L10.7704 93.1008ZM2 54.1006C2 36.4521 4.87435 23.4019 10.4803 14.803L8.80488 13.7107C2.88736 22.7876 0 36.2999 0 54.1006H2ZM10.4782 14.8062C16.068 6.30405 24.8742 2 37.1084 2V0C24.3426 0 14.8383 4.53384 8.80699 13.7075L10.4782 14.8062ZM37.1084 2C48.9841 2 57.5993 6.34024 63.1479 14.9452L64.8287 13.8614C58.8539 4.59531 49.5491 0 37.1084 0V2ZM63.1499 14.9485C68.807 23.6479 71.7041 36.6524 71.7041 54.1006H73.7041C73.7041 36.4902 70.7907 23.0298 64.8266 13.8582L63.1499 14.9485ZM60.3008 54.1006C60.3008 44.099 59.5418 35.9297 58.0018 29.6203L56.0588 30.0946C57.5461 36.1875 58.3008 44.1803 58.3008 54.1006H60.3008ZM58.0039 29.6292C56.5128 23.2674 54.0728 18.4592 50.5929 15.3429L49.2587 16.8328C52.3218 19.5759 54.618 23.9474 56.0567 30.0856L58.0039 29.6292ZM50.5929 15.3429C47.1026 12.2173 42.576 10.6934 37.1084 10.6934V12.6934C42.1877 12.6934 46.206 14.0991 49.2587 16.8328L50.5929 15.3429ZM37.1084 10.6934C31.5516 10.6934 26.9347 12.1878 23.3482 15.2546L24.6479 16.7747C27.7996 14.0797 31.923 12.6934 37.1084 12.6934V10.6934ZM23.3482 15.2546C19.7642 18.3192 17.2215 23.1042 15.6304 29.4684L17.5707 29.9535C19.1047 23.8177 21.4936 19.4719 24.6479 16.7747L23.3482 15.2546ZM15.6291 29.4738C14.0889 35.7837 13.3301 44.0022 13.3301 54.1006H15.3301C15.3301 44.0818 16.0849 36.0405 17.5721 29.9481L15.6291 29.4738ZM13.3301 54.1006C13.3301 63.9106 14.114 72.0077 15.7037 78.3666L17.644 77.8815C16.1087 71.7403 15.3301 63.8218 15.3301 54.1006H13.3301ZM15.7055 78.3737C17.3451 84.7334 19.8845 89.5544 23.4035 92.7112L24.739 91.2224C21.6175 88.4222 19.2252 84.0146 17.6422 77.8744L15.7055 78.3737ZM23.4035 92.7112C26.9364 95.8804 31.4352 97.4346 36.8154 97.4346V95.4346C31.8441 95.4346 27.8468 94.0103 24.739 91.2224L23.4035 92.7112ZM36.8154 97.4346C40.85 97.4346 44.3996 96.5322 47.425 94.6884C50.45 92.8448 52.8916 90.0963 54.7677 86.4963L52.9941 85.572C51.2568 88.9057 49.0476 91.3573 46.3841 92.9806C43.7211 94.6036 40.5445 95.4346 36.8154 95.4346V97.4346ZM54.7677 86.4963C58.4943 79.3453 60.3008 68.5035 60.3008 54.1006H58.3008C58.3008 68.4086 56.494 78.8559 52.9941 85.572L54.7677 86.4963ZM154.735 94.5303H155.735V93.5303H154.735V94.5303ZM154.735 105.736V106.736H155.735V105.736H154.735ZM90.0625 105.736H89.0625V106.736H90.0625V105.736ZM90.0625 94.5303V93.5303H89.0625V94.5303H90.0625ZM116.356 94.5303V95.5303H117.356V94.5303H116.356ZM116.356 15.1357H117.356V13.1933L115.775 14.3218L116.356 15.1357ZM93.0654 31.7617H92.0654V33.7042L93.6464 32.5756L93.0654 31.7617ZM93.0654 19.3105L92.4988 18.4866L92.0654 18.7846V19.3105H93.0654ZM117.455 2.53809V1.53809H117.144L116.888 1.71412L117.455 2.53809ZM129.613 2.53809H130.613V1.53809H129.613V2.53809ZM129.613 94.5303H128.613V95.5303H129.613V94.5303ZM153.735 94.5303V105.736H155.735V94.5303H153.735ZM154.735 104.736H90.0625V106.736H154.735V104.736ZM91.0625 105.736V94.5303H89.0625V105.736H91.0625ZM90.0625 95.5303H116.356V93.5303H90.0625V95.5303ZM117.356 94.5303V15.1357H115.356V94.5303H117.356ZM115.775 14.3218L92.4844 30.9478L93.6464 32.5756L116.937 15.9496L115.775 14.3218ZM94.0654 31.7617V19.3105H92.0654V31.7617H94.0654ZM93.6321 20.1345L118.022 3.36206L116.888 1.71412L92.4988 18.4866L93.6321 20.1345ZM117.455 3.53809H129.613V1.53809H117.455V3.53809ZM128.613 2.53809V94.5303H130.613V2.53809H128.613ZM129.613 95.5303H154.735V93.5303H129.613V95.5303Z" fill="white" mask="url(#path-1-outside-1_489_327)"/>
</g>
</svg>
