<svg width="156" height="109" viewBox="0 0 156 109" fill="none" xmlns="http://www.w3.org/2000/svg">
<g opacity="0.05">
<mask id="path-1-outside-1_489_375" maskUnits="userSpaceOnUse" x="-0.859375" y="-0.263672" width="157" height="109" fill="black">
<rect fill="white" x="-0.859375" y="-0.263672" width="157" height="109"/>
<path d="M72.7041 54.1006C72.7041 71.3369 69.6523 84.4961 63.5488 93.5781C57.4941 102.66 48.5342 107.201 36.6689 107.201C24.8037 107.201 15.8926 102.685 9.93555 93.6514C3.97852 84.6182 1 71.4346 1 54.1006C1 36.376 3.88086 23.0947 9.64258 14.2568C15.4531 5.41895 24.6084 1 37.1084 1C49.2666 1 58.2266 5.46777 63.9883 14.4033C69.7988 23.3389 72.7041 36.5713 72.7041 54.1006ZM59.3008 54.1006C59.3008 44.1396 58.5439 36.0586 57.0303 29.8574C55.5654 23.6074 53.1973 19.0176 49.9258 16.0879C46.6543 13.1582 42.3818 11.6934 37.1084 11.6934C31.7373 11.6934 27.3672 13.1338 23.998 16.0146C20.6289 18.8955 18.1631 23.4609 16.6006 29.7109C15.0869 35.9121 14.3301 44.042 14.3301 54.1006C14.3301 63.8662 15.1113 71.874 16.6738 78.124C18.2852 84.374 20.751 88.9883 24.0713 91.9668C27.3916 94.9453 31.6396 96.4346 36.8154 96.4346C44.5791 96.4346 50.2676 92.9678 53.8809 86.0342C57.4941 79.1006 59.3008 68.4561 59.3008 54.1006ZM154.516 94.5303V105.736H86.1807V96.4346C88.6709 90.7217 91.6738 85.668 95.1895 81.2734C98.7539 76.8789 102.538 72.9238 106.542 69.4082C110.546 65.8926 114.501 62.6211 118.407 59.5938C120.36 58.0801 122.191 56.5664 123.9 55.0527C125.658 53.5391 127.318 52.0254 128.881 50.5117C132.006 47.4844 134.521 44.3105 136.425 40.9902C138.378 37.6699 139.354 33.9102 139.354 29.7109C139.354 24.0469 137.694 19.6523 134.374 16.5273C131.054 13.4023 126.439 11.8398 120.531 11.8398C114.916 11.8398 110.277 13.3779 106.615 16.4541C103.002 19.4814 100.878 23.7539 100.243 29.2715L86.7666 28.0264C87.7432 19.7744 91.2344 13.207 97.2402 8.32422C103.295 3.44141 111.059 1 120.531 1C130.932 1 138.915 3.46582 144.481 8.39746C150.097 13.2803 152.904 20.2383 152.904 29.2715C152.904 33.2754 151.977 37.2549 150.121 41.21C148.314 45.165 145.604 49.1201 141.991 53.0752C140.185 55.0283 137.548 57.543 134.081 60.6191C130.614 63.6953 126.342 67.3086 121.264 71.459C115.648 76.0488 111.181 80.1992 107.86 83.9102C104.54 87.5723 102.147 91.1123 100.683 94.5303H154.516Z"/>
</mask>
<path d="M63.5488 93.5781L62.7188 93.0203L62.7168 93.0234L63.5488 93.5781ZM9.64258 14.2568L8.80699 13.7075L8.80488 13.7107L9.64258 14.2568ZM63.9883 14.4033L63.1478 14.9452L63.1499 14.9485L63.9883 14.4033ZM57.0303 29.8574L56.0566 30.0856L56.0588 30.0946L57.0303 29.8574ZM16.6006 29.7109L15.6304 29.4684L15.6291 29.4738L16.6006 29.7109ZM16.6738 78.124L15.7037 78.3666L15.7055 78.3737L16.6738 78.124ZM71.7041 54.1006C71.7041 71.2435 68.6646 84.173 62.7188 93.0203L64.3788 94.1359C70.6401 84.8192 73.7041 71.4304 73.7041 54.1006H71.7041ZM62.7168 93.0234C56.8659 101.8 48.2343 106.201 36.6689 106.201V108.201C48.8341 108.201 58.1224 103.521 64.3809 94.1328L62.7168 93.0234ZM36.6689 106.201C25.1014 106.201 16.5222 101.823 10.7704 93.1008L9.10073 94.2019C15.263 103.546 24.506 108.201 36.6689 108.201V106.201ZM10.7704 93.1008C4.96802 84.3022 2 71.3464 2 54.1006H0C0 71.5228 2.98901 84.9341 9.10073 94.2019L10.7704 93.1008ZM2 54.1006C2 36.4521 4.87435 23.4019 10.4803 14.803L8.80488 13.7107C2.88736 22.7876 0 36.2999 0 54.1006H2ZM10.4782 14.8062C16.068 6.30405 24.8742 2 37.1084 2V0C24.3426 0 14.8383 4.53384 8.80699 13.7075L10.4782 14.8062ZM37.1084 2C48.9841 2 57.5993 6.34024 63.1479 14.9452L64.8287 13.8614C58.8539 4.59531 49.5491 0 37.1084 0V2ZM63.1499 14.9485C68.807 23.6479 71.7041 36.6524 71.7041 54.1006H73.7041C73.7041 36.4902 70.7907 23.0298 64.8266 13.8582L63.1499 14.9485ZM60.3008 54.1006C60.3008 44.099 59.5418 35.9297 58.0018 29.6203L56.0588 30.0946C57.5461 36.1875 58.3008 44.1803 58.3008 54.1006H60.3008ZM58.0039 29.6292C56.5128 23.2674 54.0728 18.4592 50.5929 15.3429L49.2587 16.8328C52.3218 19.5759 54.618 23.9474 56.0567 30.0856L58.0039 29.6292ZM50.5929 15.3429C47.1026 12.2173 42.576 10.6934 37.1084 10.6934V12.6934C42.1877 12.6934 46.206 14.0991 49.2587 16.8328L50.5929 15.3429ZM37.1084 10.6934C31.5516 10.6934 26.9347 12.1878 23.3482 15.2546L24.6479 16.7747C27.7996 14.0797 31.923 12.6934 37.1084 12.6934V10.6934ZM23.3482 15.2546C19.7642 18.3192 17.2215 23.1042 15.6304 29.4684L17.5707 29.9535C19.1047 23.8177 21.4936 19.4719 24.6479 16.7747L23.3482 15.2546ZM15.6291 29.4738C14.0889 35.7837 13.3301 44.0022 13.3301 54.1006H15.3301C15.3301 44.0818 16.0849 36.0405 17.5721 29.9481L15.6291 29.4738ZM13.3301 54.1006C13.3301 63.9106 14.114 72.0077 15.7037 78.3666L17.644 77.8815C16.1087 71.7403 15.3301 63.8218 15.3301 54.1006H13.3301ZM15.7055 78.3737C17.3451 84.7334 19.8845 89.5544 23.4035 92.7112L24.739 91.2224C21.6175 88.4222 19.2252 84.0146 17.6422 77.8744L15.7055 78.3737ZM23.4035 92.7112C26.9364 95.8804 31.4352 97.4346 36.8154 97.4346V95.4346C31.8441 95.4346 27.8468 94.0103 24.739 91.2224L23.4035 92.7112ZM36.8154 97.4346C40.85 97.4346 44.3996 96.5322 47.425 94.6884C50.45 92.8448 52.8916 90.0963 54.7677 86.4963L52.9941 85.572C51.2568 88.9057 49.0476 91.3573 46.3841 92.9806C43.7211 94.6036 40.5445 95.4346 36.8154 95.4346V97.4346ZM54.7677 86.4963C58.4943 79.3453 60.3008 68.5035 60.3008 54.1006H58.3008C58.3008 68.4086 56.494 78.8559 52.9941 85.572L54.7677 86.4963ZM154.516 94.5303H155.516V93.5303H154.516V94.5303ZM154.516 105.736V106.736H155.516V105.736H154.516ZM86.1807 105.736H85.1807V106.736H86.1807V105.736ZM86.1807 96.4346L85.264 96.035L85.1807 96.2261V96.4346H86.1807ZM95.1895 81.2734L94.4128 80.6435L94.4086 80.6487L95.1895 81.2734ZM123.9 55.0527L123.248 54.2949L123.237 54.3041L123.9 55.0527ZM136.425 40.9902L135.563 40.4832L135.557 40.4927L136.425 40.9902ZM106.615 16.4541L107.257 17.2206L107.258 17.2198L106.615 16.4541ZM100.243 29.2715L100.151 30.2672L101.125 30.3572L101.237 29.3858L100.243 29.2715ZM86.7666 28.0264L85.7735 27.9088L85.653 28.9277L86.6746 29.0221L86.7666 28.0264ZM97.2402 8.32422L96.6125 7.5458L96.6094 7.5483L97.2402 8.32422ZM144.481 8.39746L143.818 9.14599L143.825 9.15207L144.481 8.39746ZM150.121 41.21L149.216 40.7852L149.212 40.7945L150.121 41.21ZM141.991 53.0752L142.725 53.7542L142.729 53.7497L141.991 53.0752ZM121.264 71.459L120.631 70.6847L120.631 70.6847L121.264 71.459ZM107.86 83.9102L108.601 84.5819L108.606 84.577L107.86 83.9102ZM100.683 94.5303L99.7635 94.1364L99.1661 95.5303H100.683V94.5303ZM153.516 94.5303V105.736H155.516V94.5303H153.516ZM154.516 104.736H86.1807V106.736H154.516V104.736ZM87.1807 105.736V96.4346H85.1807V105.736H87.1807ZM87.0974 96.8342C89.5561 91.1934 92.5152 86.217 95.9703 81.8981L94.4086 80.6487C90.8324 85.1189 87.7857 90.2499 85.264 96.035L87.0974 96.8342ZM95.9661 81.9034C99.4973 77.5499 103.243 73.6359 107.202 70.1596L105.882 68.6568C101.833 72.2117 98.0106 76.2079 94.4128 80.6435L95.9661 81.9034ZM107.202 70.1596C111.192 66.6565 115.131 63.3981 119.02 60.3842L117.795 58.8033C113.871 61.8441 109.9 65.1287 105.882 68.6568L107.202 70.1596ZM119.02 60.3842C120.989 58.8582 122.837 57.3306 124.563 55.8013L123.237 54.3041C121.546 55.8022 119.732 57.302 117.795 58.8033L119.02 60.3842ZM124.553 55.8105C126.325 54.2849 127.999 52.7581 129.577 51.23L128.185 49.7935C126.637 51.2927 124.992 52.7932 123.248 54.295L124.553 55.8105ZM129.577 51.23C132.76 48.1462 135.336 44.8995 137.292 41.4877L135.557 40.4927C133.706 43.7216 131.252 46.8226 128.185 49.7935L129.577 51.23ZM137.287 41.4973C139.338 38.0096 140.354 34.0719 140.354 29.7109H138.354C138.354 33.7484 137.418 37.3303 135.563 40.4832L137.287 41.4973ZM140.354 29.7109C140.354 23.8425 138.627 19.157 135.059 15.7991L133.689 17.2555C136.762 20.1477 138.354 24.2512 138.354 29.7109H140.354ZM135.059 15.7991C131.504 12.4526 126.616 10.8398 120.531 10.8398V12.8398C126.263 12.8398 130.604 14.3521 133.689 17.2555L135.059 15.7991ZM120.531 10.8398C114.724 10.8398 109.845 12.4353 105.972 15.6884L107.258 17.2198C110.71 14.3205 115.108 12.8398 120.531 12.8398V10.8398ZM105.973 15.6876C102.129 18.9082 99.9082 23.4337 99.2497 29.1572L101.237 29.3858C101.848 24.0742 103.875 20.0547 107.257 17.2206L105.973 15.6876ZM100.335 28.2757L86.8586 27.0306L86.6746 29.0221L100.151 30.2672L100.335 28.2757ZM87.7597 28.1439C88.7082 20.1292 92.0827 13.8061 97.8711 9.10014L96.6094 7.5483C90.386 12.608 86.7782 19.4196 85.7735 27.9088L87.7597 28.1439ZM97.868 9.10263C103.709 4.39245 111.236 2 120.531 2V0C110.882 0 102.881 2.49036 96.6125 7.54581L97.868 9.10263ZM120.531 2C130.784 2 138.496 4.43089 143.818 9.14596L145.145 7.64897C139.334 2.50075 131.079 0 120.531 0V2ZM143.825 9.15207C149.176 13.8047 151.904 20.4602 151.904 29.2715H153.904C153.904 20.0164 151.018 12.7558 145.138 7.64286L143.825 9.15207ZM151.904 29.2715C151.904 33.1156 151.015 36.9508 149.216 40.7852L151.026 41.6347C152.938 37.559 153.904 33.4352 153.904 29.2715H151.904ZM149.212 40.7945C147.457 44.6358 144.812 48.5054 141.253 52.4007L142.729 53.7497C146.397 49.7348 149.172 45.6943 151.031 41.6255L149.212 40.7945ZM141.257 52.3962C139.483 54.3138 136.875 56.8034 133.417 59.8712L134.745 61.3671C138.221 58.2826 140.886 55.7428 142.725 53.7542L141.257 52.3962ZM133.417 59.8712C129.964 62.9355 125.702 66.5397 120.631 70.6847L121.897 72.2333C126.981 68.0775 131.265 64.4551 134.745 61.3671L133.417 59.8712ZM120.631 70.6847C114.992 75.294 110.482 79.4806 107.115 83.2434L108.606 84.577C111.88 80.9178 116.305 76.8036 121.897 72.2332L120.631 70.6847ZM107.12 83.2385C103.748 86.9573 101.284 90.5892 99.7635 94.1364L101.602 94.9242C103.011 91.6354 105.332 88.1872 108.601 84.5818L107.12 83.2385ZM100.683 95.5303H154.516V93.5303H100.683V95.5303Z" fill="white" mask="url(#path-1-outside-1_489_375)"/>
</g>
</svg>
