<svg width="157" height="109" viewBox="0 0 157 109" fill="none" xmlns="http://www.w3.org/2000/svg">
<g opacity="0.05">
<mask id="path-1-outside-1_489_398" maskUnits="userSpaceOnUse" x="-0.859375" y="-0.263672" width="158" height="109" fill="black">
<rect fill="white" x="-0.859375" y="-0.263672" width="158" height="109"/>
<path d="M72.7041 54.1006C72.7041 71.3369 69.6523 84.4961 63.5488 93.5781C57.4941 102.66 48.5342 107.201 36.6689 107.201C24.8037 107.201 15.8926 102.685 9.93555 93.6514C3.97852 84.6182 1 71.4346 1 54.1006C1 36.376 3.88086 23.0947 9.64258 14.2568C15.4531 5.41895 24.6084 1 37.1084 1C49.2666 1 58.2266 5.46777 63.9883 14.4033C69.7988 23.3389 72.7041 36.5713 72.7041 54.1006ZM59.3008 54.1006C59.3008 44.1396 58.5439 36.0586 57.0303 29.8574C55.5654 23.6074 53.1973 19.0176 49.9258 16.0879C46.6543 13.1582 42.3818 11.6934 37.1084 11.6934C31.7373 11.6934 27.3672 13.1338 23.998 16.0146C20.6289 18.8955 18.1631 23.4609 16.6006 29.7109C15.0869 35.9121 14.3301 44.042 14.3301 54.1006C14.3301 63.8662 15.1113 71.874 16.6738 78.124C18.2852 84.374 20.751 88.9883 24.0713 91.9668C27.3916 94.9453 31.6396 96.4346 36.8154 96.4346C44.5791 96.4346 50.2676 92.9678 53.8809 86.0342C57.4941 79.1006 59.3008 68.4561 59.3008 54.1006ZM155.468 77.2451C155.468 86.7666 152.44 94.1396 146.386 99.3643C140.331 104.589 131.688 107.201 120.458 107.201C110.009 107.201 101.659 104.857 95.4092 100.17C89.208 95.4336 85.5215 88.4512 84.3496 79.2227L97.9727 77.9775C99.7305 90.1846 107.226 96.2881 120.458 96.2881C127.099 96.2881 132.299 94.6523 136.059 91.3809C139.867 88.1094 141.771 83.251 141.771 76.8057C141.771 71.1904 139.599 66.8203 135.253 63.6953C130.956 60.5215 124.73 58.9346 116.576 58.9346H109.105V47.5088H116.283C123.51 47.5088 129.101 45.9463 133.056 42.8213C137.06 39.6475 139.062 35.2773 139.062 29.7109C139.062 24.1934 137.426 19.8477 134.154 16.6738C130.932 13.4512 126.122 11.8398 119.726 11.8398C113.915 11.8398 109.203 13.3291 105.59 16.3076C102.025 19.2861 99.9502 23.4854 99.3643 28.9053L86.1074 27.8799C87.084 19.4326 90.5752 12.8408 96.5811 8.10449C102.636 3.36816 110.399 1 119.872 1C130.224 1 138.256 3.41699 143.969 8.25098C149.73 13.0361 152.611 19.7256 152.611 28.3193C152.611 34.9111 150.756 40.2822 147.045 44.4326C143.383 48.5342 138.036 51.3174 131.005 52.7822V53.0752C138.72 53.9053 144.726 56.4932 149.022 60.8389C153.319 65.1846 155.468 70.6533 155.468 77.2451Z"/>
</mask>
<path d="M63.5488 93.5781L62.7188 93.0203L62.7168 93.0234L63.5488 93.5781ZM9.64258 14.2568L8.80699 13.7075L8.80488 13.7107L9.64258 14.2568ZM63.9883 14.4033L63.1478 14.9452L63.1499 14.9485L63.9883 14.4033ZM57.0303 29.8574L56.0566 30.0856L56.0588 30.0946L57.0303 29.8574ZM16.6006 29.7109L15.6304 29.4684L15.6291 29.4738L16.6006 29.7109ZM16.6738 78.124L15.7037 78.3666L15.7055 78.3737L16.6738 78.124ZM71.7041 54.1006C71.7041 71.2435 68.6646 84.173 62.7188 93.0203L64.3788 94.1359C70.6401 84.8192 73.7041 71.4304 73.7041 54.1006H71.7041ZM62.7168 93.0234C56.8659 101.8 48.2343 106.201 36.6689 106.201V108.201C48.8341 108.201 58.1224 103.521 64.3809 94.1328L62.7168 93.0234ZM36.6689 106.201C25.1014 106.201 16.5222 101.823 10.7704 93.1008L9.10073 94.2019C15.263 103.546 24.506 108.201 36.6689 108.201V106.201ZM10.7704 93.1008C4.96802 84.3022 2 71.3464 2 54.1006H0C0 71.5228 2.98901 84.9341 9.10073 94.2019L10.7704 93.1008ZM2 54.1006C2 36.4521 4.87435 23.4019 10.4803 14.803L8.80488 13.7107C2.88736 22.7876 0 36.2999 0 54.1006H2ZM10.4782 14.8062C16.068 6.30405 24.8742 2 37.1084 2V0C24.3426 0 14.8383 4.53384 8.80699 13.7075L10.4782 14.8062ZM37.1084 2C48.9841 2 57.5993 6.34024 63.1479 14.9452L64.8287 13.8614C58.8539 4.59531 49.5491 0 37.1084 0V2ZM63.1499 14.9485C68.807 23.6479 71.7041 36.6524 71.7041 54.1006H73.7041C73.7041 36.4902 70.7907 23.0298 64.8266 13.8582L63.1499 14.9485ZM60.3008 54.1006C60.3008 44.099 59.5418 35.9297 58.0018 29.6203L56.0588 30.0946C57.5461 36.1875 58.3008 44.1803 58.3008 54.1006H60.3008ZM58.0039 29.6292C56.5128 23.2674 54.0728 18.4592 50.5929 15.3429L49.2587 16.8328C52.3218 19.5759 54.618 23.9474 56.0567 30.0856L58.0039 29.6292ZM50.5929 15.3429C47.1026 12.2173 42.576 10.6934 37.1084 10.6934V12.6934C42.1877 12.6934 46.206 14.0991 49.2587 16.8328L50.5929 15.3429ZM37.1084 10.6934C31.5516 10.6934 26.9347 12.1878 23.3482 15.2546L24.6479 16.7747C27.7996 14.0797 31.923 12.6934 37.1084 12.6934V10.6934ZM23.3482 15.2546C19.7642 18.3192 17.2215 23.1042 15.6304 29.4684L17.5707 29.9535C19.1047 23.8177 21.4936 19.4719 24.6479 16.7747L23.3482 15.2546ZM15.6291 29.4738C14.0889 35.7837 13.3301 44.0022 13.3301 54.1006H15.3301C15.3301 44.0818 16.0849 36.0405 17.5721 29.9481L15.6291 29.4738ZM13.3301 54.1006C13.3301 63.9106 14.114 72.0077 15.7037 78.3666L17.644 77.8815C16.1087 71.7403 15.3301 63.8218 15.3301 54.1006H13.3301ZM15.7055 78.3737C17.3451 84.7334 19.8845 89.5544 23.4035 92.7112L24.739 91.2224C21.6175 88.4222 19.2252 84.0146 17.6422 77.8744L15.7055 78.3737ZM23.4035 92.7112C26.9364 95.8804 31.4352 97.4346 36.8154 97.4346V95.4346C31.8441 95.4346 27.8468 94.0103 24.739 91.2224L23.4035 92.7112ZM36.8154 97.4346C40.85 97.4346 44.3996 96.5322 47.425 94.6884C50.45 92.8448 52.8916 90.0963 54.7677 86.4963L52.9941 85.572C51.2568 88.9057 49.0476 91.3573 46.3841 92.9806C43.7211 94.6036 40.5445 95.4346 36.8154 95.4346V97.4346ZM54.7677 86.4963C58.4943 79.3453 60.3008 68.5035 60.3008 54.1006H58.3008C58.3008 68.4086 56.494 78.8559 52.9941 85.572L54.7677 86.4963ZM146.386 99.3643L145.732 98.6072L146.386 99.3643ZM95.4092 100.17L94.8022 100.965L94.8092 100.97L95.4092 100.17ZM84.3496 79.2227L84.2586 78.2268L83.2271 78.3211L83.3576 79.3486L84.3496 79.2227ZM97.9727 77.9775L98.9624 77.835L98.8271 76.8953L97.8816 76.9817L97.9727 77.9775ZM136.059 91.3809L135.407 90.6223L135.402 90.6265L136.059 91.3809ZM135.253 63.6953L134.659 64.4997L134.669 64.5072L135.253 63.6953ZM109.105 58.9346H108.105V59.9346H109.105V58.9346ZM109.105 47.5088V46.5088H108.105V47.5088H109.105ZM133.056 42.8213L133.676 43.6059L133.677 43.6049L133.056 42.8213ZM134.154 16.6738L133.447 17.3809L133.453 17.3863L133.458 17.3916L134.154 16.6738ZM105.59 16.3076L104.954 15.536L104.949 15.5403L105.59 16.3076ZM99.3643 28.9053L99.2871 29.9023L100.254 29.9771L100.358 29.0128L99.3643 28.9053ZM86.1074 27.8799L85.114 27.765L84.9948 28.7968L86.0303 28.8769L86.1074 27.8799ZM96.5811 8.10449L95.9649 7.31685L95.9618 7.31928L96.5811 8.10449ZM143.969 8.25098L143.323 9.0144L143.33 9.02027L143.969 8.25098ZM147.045 44.4326L146.299 43.7661L146.299 43.7666L147.045 44.4326ZM131.005 52.7822L130.801 51.8032L130.005 51.9691V52.7822H131.005ZM131.005 53.0752H130.005V53.9734L130.898 54.0695L131.005 53.0752ZM154.468 77.2451C154.468 86.5368 151.525 93.609 145.732 98.6072L147.039 100.121C153.356 94.6703 156.468 86.9964 156.468 77.2451H154.468ZM145.732 98.6072C139.921 103.622 131.545 106.201 120.458 106.201V108.201C131.832 108.201 140.741 105.556 147.039 100.121L145.732 98.6072ZM120.458 106.201C110.153 106.201 102.036 103.89 96.0092 99.3699L94.8092 100.97C101.282 105.825 109.865 108.201 120.458 108.201V106.201ZM96.0162 99.3752C90.0679 94.832 86.4868 88.1146 85.3416 79.0967L83.3576 79.3486C84.5562 88.7878 88.3481 96.0352 94.8022 100.965L96.0162 99.3752ZM84.4406 80.2185L98.0637 78.9734L97.8816 76.9817L84.2586 78.2268L84.4406 80.2185ZM96.9829 78.1201C97.8873 84.401 100.289 89.2355 104.281 92.4859C108.263 95.7285 113.696 97.2881 120.458 97.2881V95.2881C113.987 95.2881 109.057 93.7959 105.544 90.935C102.04 88.0819 99.8158 83.7611 98.9624 77.835L96.9829 78.1201ZM120.458 97.2881C127.259 97.2881 132.72 95.6113 136.715 92.1353L135.402 90.6265C131.878 93.6934 126.939 95.2881 120.458 95.2881V97.2881ZM136.71 92.1394C140.799 88.6269 142.771 83.4538 142.771 76.8057H140.771C140.771 83.0482 138.935 87.5919 135.407 90.6223L136.71 92.1394ZM142.771 76.8057C142.771 70.8872 140.458 66.2069 135.837 62.8834L134.669 64.5072C138.739 67.4337 140.771 71.4937 140.771 76.8057H142.771ZM135.847 62.8909C131.309 59.5389 124.838 57.9346 116.576 57.9346V59.9346C124.623 59.9346 130.603 61.5041 134.659 64.4997L135.847 62.8909ZM116.576 57.9346H109.105V59.9346H116.576V57.9346ZM110.105 58.9346V47.5088H108.105V58.9346H110.105ZM109.105 48.5088H116.283V46.5088H109.105V48.5088ZM116.283 48.5088C123.64 48.5088 129.482 46.9197 133.676 43.6059L132.436 42.0367C128.719 44.9729 123.38 46.5088 116.283 46.5088V48.5088ZM133.677 43.6049C137.944 40.2228 140.062 35.5514 140.062 29.7109H138.062C138.062 35.0033 136.176 39.0721 132.434 42.0376L133.677 43.6049ZM140.062 29.7109C140.062 23.984 138.356 19.3569 134.851 15.9561L133.458 17.3916C136.495 20.3384 138.062 24.4028 138.062 29.7109H140.062ZM134.861 15.9667C131.386 12.4917 126.279 10.8398 119.726 10.8398V12.8398C125.965 12.8398 130.477 14.4107 133.447 17.3809L134.861 15.9667ZM119.726 10.8398C113.741 10.8398 108.786 12.377 104.954 15.536L106.226 17.0792C109.62 14.2812 114.09 12.8398 119.726 12.8398V10.8398ZM104.949 15.5403C101.151 18.7133 98.9786 23.1684 98.37 28.7978L100.358 29.0128C100.922 23.8023 102.899 19.859 106.231 17.075L104.949 15.5403ZM99.4414 27.9083L86.1845 26.8829L86.0303 28.8769L99.2871 29.9023L99.4414 27.9083ZM87.1008 27.9947C88.0506 19.7794 91.4276 13.4421 97.2003 8.8897L95.9618 7.31928C89.7227 12.2395 86.1174 19.0858 85.114 27.765L87.1008 27.9947ZM97.1972 8.89213C103.038 4.32293 110.57 2 119.872 2V0C110.229 0 102.233 2.4134 95.9649 7.31685L97.1972 8.89213ZM119.872 2C130.077 2 137.849 4.38276 143.323 9.01436L144.615 7.48759C138.663 2.45123 130.37 0 119.872 0V2ZM143.33 9.02027C148.828 13.5862 151.611 19.9739 151.611 28.3193H153.611C153.611 19.4773 150.633 12.4861 144.608 7.48169L143.33 9.02027ZM151.611 28.3193C151.611 34.713 149.817 39.8318 146.299 43.7661L147.79 45.0992C151.695 40.7327 153.611 35.1092 153.611 28.3193H151.611ZM146.299 43.7666C142.818 47.6658 137.687 50.3687 130.801 51.8032L131.209 53.7612C138.386 52.2661 143.948 49.4025 147.791 45.0986L146.299 43.7666ZM130.005 52.7822V53.0752H132.005V52.7822H130.005ZM130.898 54.0695C138.447 54.8817 144.216 57.4 148.311 61.542L149.734 60.1358C145.235 55.5864 138.993 52.9289 131.112 52.0809L130.898 54.0695ZM148.311 61.542C152.408 65.6848 154.468 70.8938 154.468 77.2451H156.468C156.468 70.4129 154.231 64.6843 149.734 60.1358L148.311 61.542Z" fill="white" mask="url(#path-1-outside-1_489_398)"/>
</g>
</svg>
