<svg width="159" height="109" viewBox="0 0 159 109" fill="none" xmlns="http://www.w3.org/2000/svg">
<g opacity="0.05">
<mask id="path-1-outside-1_489_421" maskUnits="userSpaceOnUse" x="-0.859375" y="-0.263672" width="160" height="109" fill="black">
<rect fill="white" x="-0.859375" y="-0.263672" width="160" height="109"/>
<path d="M72.7041 54.1006C72.7041 71.3369 69.6523 84.4961 63.5488 93.5781C57.4941 102.66 48.5342 107.201 36.6689 107.201C24.8037 107.201 15.8926 102.685 9.93555 93.6514C3.97852 84.6182 1 71.4346 1 54.1006C1 36.376 3.88086 23.0947 9.64258 14.2568C15.4531 5.41895 24.6084 1 37.1084 1C49.2666 1 58.2266 5.46777 63.9883 14.4033C69.7988 23.3389 72.7041 36.5713 72.7041 54.1006ZM59.3008 54.1006C59.3008 44.1396 58.5439 36.0586 57.0303 29.8574C55.5654 23.6074 53.1973 19.0176 49.9258 16.0879C46.6543 13.1582 42.3818 11.6934 37.1084 11.6934C31.7373 11.6934 27.3672 13.1338 23.998 16.0146C20.6289 18.8955 18.1631 23.4609 16.6006 29.7109C15.0869 35.9121 14.3301 44.042 14.3301 54.1006C14.3301 63.8662 15.1113 71.874 16.6738 78.124C18.2852 84.374 20.751 88.9883 24.0713 91.9668C27.3916 94.9453 31.6396 96.4346 36.8154 96.4346C44.5791 96.4346 50.2676 92.9678 53.8809 86.0342C57.4941 79.1006 59.3008 68.4561 59.3008 54.1006ZM143.163 82.3721V105.736H130.712V82.3721H82.0791V72.1182L129.32 2.53809H143.163V71.9717H157.665V82.3721H143.163ZM94.2373 71.9717H130.712V30.8096C130.712 28.5635 130.712 26.3418 130.712 24.1445C130.761 21.8984 130.858 19.6523 131.005 17.4062C129.882 19.5547 128.905 21.3125 128.075 22.6797C127.245 23.998 126.488 25.1455 125.805 26.1221L94.2373 71.9717Z"/>
</mask>
<path d="M63.5488 93.5781L62.7188 93.0203L62.7168 93.0234L63.5488 93.5781ZM9.64258 14.2568L8.80699 13.7075L8.80488 13.7107L9.64258 14.2568ZM63.9883 14.4033L63.1478 14.9452L63.1499 14.9485L63.9883 14.4033ZM57.0303 29.8574L56.0566 30.0856L56.0588 30.0946L57.0303 29.8574ZM16.6006 29.7109L15.6304 29.4684L15.6291 29.4738L16.6006 29.7109ZM16.6738 78.124L15.7037 78.3666L15.7055 78.3737L16.6738 78.124ZM71.7041 54.1006C71.7041 71.2435 68.6646 84.173 62.7188 93.0203L64.3788 94.1359C70.6401 84.8192 73.7041 71.4304 73.7041 54.1006H71.7041ZM62.7168 93.0234C56.8659 101.8 48.2343 106.201 36.6689 106.201V108.201C48.8341 108.201 58.1224 103.521 64.3809 94.1328L62.7168 93.0234ZM36.6689 106.201C25.1014 106.201 16.5222 101.823 10.7704 93.1008L9.10073 94.2019C15.263 103.546 24.506 108.201 36.6689 108.201V106.201ZM10.7704 93.1008C4.96802 84.3022 2 71.3464 2 54.1006H0C0 71.5228 2.98901 84.9341 9.10073 94.2019L10.7704 93.1008ZM2 54.1006C2 36.4521 4.87435 23.4019 10.4803 14.803L8.80488 13.7107C2.88736 22.7876 0 36.2999 0 54.1006H2ZM10.4782 14.8062C16.068 6.30405 24.8742 2 37.1084 2V0C24.3426 0 14.8383 4.53384 8.80699 13.7075L10.4782 14.8062ZM37.1084 2C48.9841 2 57.5993 6.34024 63.1479 14.9452L64.8287 13.8614C58.8539 4.59531 49.5491 0 37.1084 0V2ZM63.1499 14.9485C68.807 23.6479 71.7041 36.6524 71.7041 54.1006H73.7041C73.7041 36.4902 70.7907 23.0298 64.8266 13.8582L63.1499 14.9485ZM60.3008 54.1006C60.3008 44.099 59.5418 35.9297 58.0018 29.6203L56.0588 30.0946C57.5461 36.1875 58.3008 44.1803 58.3008 54.1006H60.3008ZM58.0039 29.6292C56.5128 23.2674 54.0728 18.4592 50.5929 15.3429L49.2587 16.8328C52.3218 19.5759 54.618 23.9474 56.0567 30.0856L58.0039 29.6292ZM50.5929 15.3429C47.1026 12.2173 42.576 10.6934 37.1084 10.6934V12.6934C42.1877 12.6934 46.206 14.0991 49.2587 16.8328L50.5929 15.3429ZM37.1084 10.6934C31.5516 10.6934 26.9347 12.1878 23.3482 15.2546L24.6479 16.7747C27.7996 14.0797 31.923 12.6934 37.1084 12.6934V10.6934ZM23.3482 15.2546C19.7642 18.3192 17.2215 23.1042 15.6304 29.4684L17.5707 29.9535C19.1047 23.8177 21.4936 19.4719 24.6479 16.7747L23.3482 15.2546ZM15.6291 29.4738C14.0889 35.7837 13.3301 44.0022 13.3301 54.1006H15.3301C15.3301 44.0818 16.0849 36.0405 17.5721 29.9481L15.6291 29.4738ZM13.3301 54.1006C13.3301 63.9106 14.114 72.0077 15.7037 78.3666L17.644 77.8815C16.1087 71.7403 15.3301 63.8218 15.3301 54.1006H13.3301ZM15.7055 78.3737C17.3451 84.7334 19.8845 89.5544 23.4035 92.7112L24.739 91.2224C21.6175 88.4222 19.2252 84.0146 17.6422 77.8744L15.7055 78.3737ZM23.4035 92.7112C26.9364 95.8804 31.4352 97.4346 36.8154 97.4346V95.4346C31.8441 95.4346 27.8468 94.0103 24.739 91.2224L23.4035 92.7112ZM36.8154 97.4346C40.85 97.4346 44.3996 96.5322 47.425 94.6884C50.45 92.8448 52.8916 90.0963 54.7677 86.4963L52.9941 85.572C51.2568 88.9057 49.0476 91.3573 46.3841 92.9806C43.7211 94.6036 40.5445 95.4346 36.8154 95.4346V97.4346ZM54.7677 86.4963C58.4943 79.3453 60.3008 68.5035 60.3008 54.1006H58.3008C58.3008 68.4086 56.494 78.8559 52.9941 85.572L54.7677 86.4963ZM143.163 82.3721V81.3721H142.163V82.3721H143.163ZM143.163 105.736V106.736H144.163V105.736H143.163ZM130.712 105.736H129.712V106.736H130.712V105.736ZM130.712 82.3721H131.712V81.3721H130.712V82.3721ZM82.0791 82.3721H81.0791V83.3721H82.0791V82.3721ZM82.0791 72.1182L81.2518 71.5564L81.0791 71.8108V72.1182H82.0791ZM129.32 2.53809V1.53809H128.791L128.493 1.97637L129.32 2.53809ZM143.163 2.53809H144.163V1.53809H143.163V2.53809ZM143.163 71.9717H142.163V72.9717H143.163V71.9717ZM157.665 71.9717H158.665V70.9717H157.665V71.9717ZM157.665 82.3721V83.3721H158.665V82.3721H157.665ZM94.2373 71.9717L93.4137 71.4046L92.3347 72.9717H94.2373V71.9717ZM130.712 71.9717V72.9717H131.712V71.9717H130.712ZM130.712 24.1445L129.712 24.1228L129.712 24.1337V24.1445H130.712ZM131.005 17.4062L132.003 17.4713L130.119 16.943L131.005 17.4062ZM128.075 22.6797L128.921 23.2125L128.926 23.2056L128.93 23.1987L128.075 22.6797ZM125.805 26.1221L124.985 25.5486L124.981 25.555L125.805 26.1221ZM142.163 82.3721V105.736H144.163V82.3721H142.163ZM143.163 104.736H130.712V106.736H143.163V104.736ZM131.712 105.736V82.3721H129.712V105.736H131.712ZM130.712 81.3721H82.0791V83.3721H130.712V81.3721ZM83.0791 82.3721V72.1182H81.0791V82.3721H83.0791ZM82.9064 72.6799L130.148 3.0998L128.493 1.97637L81.2518 71.5564L82.9064 72.6799ZM129.32 3.53809H143.163V1.53809H129.32V3.53809ZM142.163 2.53809V71.9717H144.163V2.53809H142.163ZM143.163 72.9717H157.665V70.9717H143.163V72.9717ZM156.665 71.9717V82.3721H158.665V71.9717H156.665ZM157.665 81.3721H143.163V83.3721H157.665V81.3721ZM94.2373 72.9717H130.712V70.9717H94.2373V72.9717ZM131.712 71.9717V30.8096H129.712V71.9717H131.712ZM131.712 30.8096C131.712 30.8052 131.712 30.8008 131.712 30.7964C131.712 30.792 131.712 30.7876 131.712 30.7833C131.712 30.7789 131.712 30.7745 131.712 30.7701C131.712 30.7657 131.712 30.7613 131.712 30.7569C131.712 30.7525 131.712 30.7482 131.712 30.7438C131.712 30.7394 131.712 30.735 131.712 30.7306C131.712 30.7262 131.712 30.7218 131.712 30.7175C131.712 30.7131 131.712 30.7087 131.712 30.7043C131.712 30.6999 131.712 30.6955 131.712 30.6911C131.712 30.6868 131.712 30.6824 131.712 30.678C131.712 30.6736 131.712 30.6692 131.712 30.6648C131.712 30.6605 131.712 30.6561 131.712 30.6517C131.712 30.6473 131.712 30.6429 131.712 30.6385C131.712 30.6341 131.712 30.6298 131.712 30.6254C131.712 30.621 131.712 30.6166 131.712 30.6122C131.712 30.6078 131.712 30.6035 131.712 30.5991C131.712 30.5947 131.712 30.5903 131.712 30.5859C131.712 30.5815 131.712 30.5772 131.712 30.5728C131.712 30.5684 131.712 30.564 131.712 30.5596C131.712 30.5552 131.712 30.5509 131.712 30.5465C131.712 30.5421 131.712 30.5377 131.712 30.5333C131.712 30.5289 131.712 30.5246 131.712 30.5202C131.712 30.5158 131.712 30.5114 131.712 30.507C131.712 30.5026 131.712 30.4983 131.712 30.4939C131.712 30.4895 131.712 30.4851 131.712 30.4807C131.712 30.4763 131.712 30.472 131.712 30.4676C131.712 30.4632 131.712 30.4588 131.712 30.4544C131.712 30.4501 131.712 30.4457 131.712 30.4413C131.712 30.4369 131.712 30.4325 131.712 30.4281C131.712 30.4238 131.712 30.4194 131.712 30.415C131.712 30.4106 131.712 30.4062 131.712 30.4019C131.712 30.3975 131.712 30.3931 131.712 30.3887C131.712 30.3843 131.712 30.38 131.712 30.3756C131.712 30.3712 131.712 30.3668 131.712 30.3624C131.712 30.358 131.712 30.3537 131.712 30.3493C131.712 30.3449 131.712 30.3405 131.712 30.3361C131.712 30.3318 131.712 30.3274 131.712 30.323C131.712 30.3186 131.712 30.3142 131.712 30.3099C131.712 30.3055 131.712 30.3011 131.712 30.2967C131.712 30.2923 131.712 30.288 131.712 30.2836C131.712 30.2792 131.712 30.2748 131.712 30.2705C131.712 30.2661 131.712 30.2617 131.712 30.2573C131.712 30.2529 131.712 30.2486 131.712 30.2442C131.712 30.2398 131.712 30.2354 131.712 30.231C131.712 30.2267 131.712 30.2223 131.712 30.2179C131.712 30.2135 131.712 30.2091 131.712 30.2048C131.712 30.2004 131.712 30.196 131.712 30.1916C131.712 30.1873 131.712 30.1829 131.712 30.1785C131.712 30.1741 131.712 30.1697 131.712 30.1654C131.712 30.161 131.712 30.1566 131.712 30.1522C131.712 30.1479 131.712 30.1435 131.712 30.1391C131.712 30.1347 131.712 30.1303 131.712 30.126C131.712 30.1216 131.712 30.1172 131.712 30.1128C131.712 30.1085 131.712 30.1041 131.712 30.0997C131.712 30.0953 131.712 30.091 131.712 30.0866C131.712 30.0822 131.712 30.0778 131.712 30.0734C131.712 30.0691 131.712 30.0647 131.712 30.0603C131.712 30.0559 131.712 30.0516 131.712 30.0472C131.712 30.0428 131.712 30.0384 131.712 30.0341C131.712 30.0297 131.712 30.0253 131.712 30.0209C131.712 30.0166 131.712 30.0122 131.712 30.0078C131.712 30.0034 131.712 29.9991 131.712 29.9947C131.712 29.9903 131.712 29.9859 131.712 29.9816C131.712 29.9772 131.712 29.9728 131.712 29.9684C131.712 29.9641 131.712 29.9597 131.712 29.9553C131.712 29.9509 131.712 29.9466 131.712 29.9422C131.712 29.9378 131.712 29.9334 131.712 29.9291C131.712 29.9247 131.712 29.9203 131.712 29.9159C131.712 29.9116 131.712 29.9072 131.712 29.9028C131.712 29.8984 131.712 29.8941 131.712 29.8897C131.712 29.8853 131.712 29.8809 131.712 29.8766C131.712 29.8722 131.712 29.8678 131.712 29.8634C131.712 29.8591 131.712 29.8547 131.712 29.8503C131.712 29.846 131.712 29.8416 131.712 29.8372C131.712 29.8328 131.712 29.8285 131.712 29.8241C131.712 29.8197 131.712 29.8153 131.712 29.811C131.712 29.8066 131.712 29.8022 131.712 29.7979C131.712 29.7935 131.712 29.7891 131.712 29.7847C131.712 29.7804 131.712 29.776 131.712 29.7716C131.712 29.7672 131.712 29.7629 131.712 29.7585C131.712 29.7541 131.712 29.7498 131.712 29.7454C131.712 29.741 131.712 29.7366 131.712 29.7323C131.712 29.7279 131.712 29.7235 131.712 29.7192C131.712 29.7148 131.712 29.7104 131.712 29.706C131.712 29.7017 131.712 29.6973 131.712 29.6929C131.712 29.6886 131.712 29.6842 131.712 29.6798C131.712 29.6754 131.712 29.6711 131.712 29.6667C131.712 29.6623 131.712 29.658 131.712 29.6536C131.712 29.6492 131.712 29.6449 131.712 29.6405C131.712 29.6361 131.712 29.6317 131.712 29.6274C131.712 29.623 131.712 29.6186 131.712 29.6143C131.712 29.6099 131.712 29.6055 131.712 29.6012C131.712 29.5968 131.712 29.5924 131.712 29.588C131.712 29.5837 131.712 29.5793 131.712 29.5749C131.712 29.5706 131.712 29.5662 131.712 29.5618C131.712 29.5575 131.712 29.5531 131.712 29.5487C131.712 29.5443 131.712 29.54 131.712 29.5356C131.712 29.5312 131.712 29.5269 131.712 29.5225C131.712 29.5181 131.712 29.5138 131.712 29.5094C131.712 29.505 131.712 29.5007 131.712 29.4963C131.712 29.4919 131.712 29.4876 131.712 29.4832C131.712 29.4788 131.712 29.4745 131.712 29.4701C131.712 29.4657 131.712 29.4613 131.712 29.457C131.712 29.4526 131.712 29.4482 131.712 29.4439C131.712 29.4395 131.712 29.4351 131.712 29.4308C131.712 29.4264 131.712 29.422 131.712 29.4177C131.712 29.4133 131.712 29.4089 131.712 29.4046C131.712 29.4002 131.712 29.3958 131.712 29.3915C131.712 29.3871 131.712 29.3827 131.712 29.3784C131.712 29.374 131.712 29.3696 131.712 29.3653C131.712 29.3609 131.712 29.3565 131.712 29.3522C131.712 29.3478 131.712 29.3434 131.712 29.3391C131.712 29.3347 131.712 29.3303 131.712 29.326C131.712 29.3216 131.712 29.3172 131.712 29.3129C131.712 29.3085 131.712 29.3041 131.712 29.2998C131.712 29.2954 131.712 29.2911 131.712 29.2867C131.712 29.2823 131.712 29.278 131.712 29.2736C131.712 29.2692 131.712 29.2649 131.712 29.2605C131.712 29.2561 131.712 29.2518 131.712 29.2474C131.712 29.243 131.712 29.2387 131.712 29.2343C131.712 29.2299 131.712 29.2256 131.712 29.2212C131.712 29.2169 131.712 29.2125 131.712 29.2081C131.712 29.2038 131.712 29.1994 131.712 29.195C131.712 29.1907 131.712 29.1863 131.712 29.1819C131.712 29.1776 131.712 29.1732 131.712 29.1688C131.712 29.1645 131.712 29.1601 131.712 29.1558C131.712 29.1514 131.712 29.147 131.712 29.1427C131.712 29.1383 131.712 29.1339 131.712 29.1296C131.712 29.1252 131.712 29.1209 131.712 29.1165C131.712 29.1121 131.712 29.1078 131.712 29.1034C131.712 29.099 131.712 29.0947 131.712 29.0903C131.712 29.086 131.712 29.0816 131.712 29.0772C131.712 29.0729 131.712 29.0685 131.712 29.0641C131.712 29.0598 131.712 29.0554 131.712 29.0511C131.712 29.0467 131.712 29.0423 131.712 29.038C131.712 29.0336 131.712 29.0292 131.712 29.0249C131.712 29.0205 131.712 29.0162 131.712 29.0118C131.712 29.0074 131.712 29.0031 131.712 28.9987C131.712 28.9944 131.712 28.99 131.712 28.9856C131.712 28.9813 131.712 28.9769 131.712 28.9725C131.712 28.9682 131.712 28.9638 131.712 28.9595C131.712 28.9551 131.712 28.9507 131.712 28.9464C131.712 28.942 131.712 28.9377 131.712 28.9333C131.712 28.9289 131.712 28.9246 131.712 28.9202C131.712 28.9159 131.712 28.9115 131.712 28.9071C131.712 28.9028 131.712 28.8984 131.712 28.8941C131.712 28.8897 131.712 28.8853 131.712 28.881C131.712 28.8766 131.712 28.8723 131.712 28.8679C131.712 28.8635 131.712 28.8592 131.712 28.8548C131.712 28.8505 131.712 28.8461 131.712 28.8418C131.712 28.8374 131.712 28.833 131.712 28.8287C131.712 28.8243 131.712 28.82 131.712 28.8156C131.712 28.8112 131.712 28.8069 131.712 28.8025C131.712 28.7982 131.712 28.7938 131.712 28.7894C131.712 28.7851 131.712 28.7807 131.712 28.7764C131.712 28.772 131.712 28.7677 131.712 28.7633C131.712 28.7589 131.712 28.7546 131.712 28.7502C131.712 28.7459 131.712 28.7415 131.712 28.7372C131.712 28.7328 131.712 28.7284 131.712 28.7241C131.712 28.7197 131.712 28.7154 131.712 28.711C131.712 28.7067 131.712 28.7023 131.712 28.6979C131.712 28.6936 131.712 28.6892 131.712 28.6849C131.712 28.6805 131.712 28.6762 131.712 28.6718C131.712 28.6674 131.712 28.6631 131.712 28.6587C131.712 28.6544 131.712 28.65 131.712 28.6457C131.712 28.6413 131.712 28.6369 131.712 28.6326C131.712 28.6282 131.712 28.6239 131.712 28.6195C131.712 28.6152 131.712 28.6108 131.712 28.6065C131.712 28.6021 131.712 28.5977 131.712 28.5934C131.712 28.589 131.712 28.5847 131.712 28.5803C131.712 28.576 131.712 28.5716 131.712 28.5673C131.712 28.5629 131.712 28.5585 131.712 28.5542C131.712 28.5498 131.712 28.5455 131.712 28.5411C131.712 28.5368 131.712 28.5324 131.712 28.5281C131.712 28.5237 131.712 28.5194 131.712 28.515C131.712 28.5106 131.712 28.5063 131.712 28.5019C131.712 28.4976 131.712 28.4932 131.712 28.4889C131.712 28.4845 131.712 28.4802 131.712 28.4758C131.712 28.4715 131.712 28.4671 131.712 28.4628C131.712 28.4584 131.712 28.4541 131.712 28.4497C131.712 28.4453 131.712 28.441 131.712 28.4366C131.712 28.4323 131.712 28.4279 131.712 28.4236C131.712 28.4192 131.712 28.4149 131.712 28.4105C131.712 28.4062 131.712 28.4018 131.712 28.3975C131.712 28.3931 131.712 28.3888 131.712 28.3844C131.712 28.38 131.712 28.3757 131.712 28.3713C131.712 28.367 131.712 28.3626 131.712 28.3583C131.712 28.3539 131.712 28.3496 131.712 28.3452C131.712 28.3409 131.712 28.3365 131.712 28.3322C131.712 28.3278 131.712 28.3235 131.712 28.3191C131.712 28.3148 131.712 28.3104 131.712 28.3061C131.712 28.3017 131.712 28.2974 131.712 28.293C131.712 28.2887 131.712 28.2843 131.712 28.28C131.712 28.2756 131.712 28.2713 131.712 28.2669C131.712 28.2626 131.712 28.2582 131.712 28.2539C131.712 28.2495 131.712 28.2452 131.712 28.2408C131.712 28.2365 131.712 28.2321 131.712 28.2278C131.712 28.2234 131.712 28.2191 131.712 28.2147C131.712 28.2104 131.712 28.206 131.712 28.2017C131.712 28.1973 131.712 28.193 131.712 28.1886C131.712 28.1843 131.712 28.1799 131.712 28.1756C131.712 28.1712 131.712 28.1669 131.712 28.1625C131.712 28.1582 131.712 28.1538 131.712 28.1495C131.712 28.1451 131.712 28.1408 131.712 28.1364C131.712 28.1321 131.712 28.1277 131.712 28.1234C131.712 28.119 131.712 28.1147 131.712 28.1103C131.712 28.106 131.712 28.1016 131.712 28.0973C131.712 28.0929 131.712 28.0886 131.712 28.0842C131.712 28.0799 131.712 28.0755 131.712 28.0712C131.712 28.0668 131.712 28.0625 131.712 28.0581C131.712 28.0538 131.712 28.0494 131.712 28.0451C131.712 28.0408 131.712 28.0364 131.712 28.0321C131.712 28.0277 131.712 28.0234 131.712 28.019C131.712 28.0147 131.712 28.0103 131.712 28.006C131.712 28.0016 131.712 27.9973 131.712 27.9929C131.712 27.9886 131.712 27.9842 131.712 27.9799C131.712 27.9755 131.712 27.9712 131.712 27.9669C131.712 27.9625 131.712 27.9582 131.712 27.9538C131.712 27.9495 131.712 27.9451 131.712 27.9408C131.712 27.9364 131.712 27.9321 131.712 27.9277C131.712 27.9234 131.712 27.919 131.712 27.9147C131.712 27.9104 131.712 27.906 131.712 27.9017C131.712 27.8973 131.712 27.893 131.712 27.8886C131.712 27.8843 131.712 27.8799 131.712 27.8756C131.712 27.8712 131.712 27.8669 131.712 27.8626C131.712 27.8582 131.712 27.8539 131.712 27.8495C131.712 27.8452 131.712 27.8408 131.712 27.8365C131.712 27.8321 131.712 27.8278 131.712 27.8235C131.712 27.8191 131.712 27.8148 131.712 27.8104C131.712 27.8061 131.712 27.8017 131.712 27.7974C131.712 27.793 131.712 27.7887 131.712 27.7844C131.712 27.78 131.712 27.7757 131.712 27.7713C131.712 27.767 131.712 27.7626 131.712 27.7583C131.712 27.754 131.712 27.7496 131.712 27.7453C131.712 27.7409 131.712 27.7366 131.712 27.7322C131.712 27.7279 131.712 27.7235 131.712 27.7192C131.712 27.7149 131.712 27.7105 131.712 27.7062C131.712 27.7018 131.712 27.6975 131.712 27.6931C131.712 27.6888 131.712 27.6845 131.712 27.6801C131.712 27.6758 131.712 27.6714 131.712 27.6671C131.712 27.6628 131.712 27.6584 131.712 27.6541C131.712 27.6497 131.712 27.6454 131.712 27.641C131.712 27.6367 131.712 27.6324 131.712 27.628C131.712 27.6237 131.712 27.6193 131.712 27.615C131.712 27.6107 131.712 27.6063 131.712 27.602C131.712 27.5976 131.712 27.5933 131.712 27.5889C131.712 27.5846 131.712 27.5803 131.712 27.5759C131.712 27.5716 131.712 27.5672 131.712 27.5629C131.712 27.5586 131.712 27.5542 131.712 27.5499C131.712 27.5455 131.712 27.5412 131.712 27.5369C131.712 27.5325 131.712 27.5282 131.712 27.5238C131.712 27.5195 131.712 27.5152 131.712 27.5108C131.712 27.5065 131.712 27.5021 131.712 27.4978C131.712 27.4935 131.712 27.4891 131.712 27.4848C131.712 27.4804 131.712 27.4761 131.712 27.4718C131.712 27.4674 131.712 27.4631 131.712 27.4587C131.712 27.4544 131.712 27.4501 131.712 27.4457C131.712 27.4414 131.712 27.437 131.712 27.4327C131.712 27.4284 131.712 27.424 131.712 27.4197C131.712 27.4154 131.712 27.411 131.712 27.4067C131.712 27.4023 131.712 27.398 131.712 27.3937C131.712 27.3893 131.712 27.385 131.712 27.3806C131.712 27.3763 131.712 27.372 131.712 27.3676C131.712 27.3633 131.712 27.359 131.712 27.3546C131.712 27.3503 131.712 27.3459 131.712 27.3416C131.712 27.3373 131.712 27.3329 131.712 27.3286C131.712 27.3243 131.712 27.3199 131.712 27.3156C131.712 27.3112 131.712 27.3069 131.712 27.3026C131.712 27.2982 131.712 27.2939 131.712 27.2896C131.712 27.2852 131.712 27.2809 131.712 27.2765C131.712 27.2722 131.712 27.2679 131.712 27.2635C131.712 27.2592 131.712 27.2549 131.712 27.2505C131.712 27.2462 131.712 27.2419 131.712 27.2375C131.712 27.2332 131.712 27.2288 131.712 27.2245C131.712 27.2202 131.712 27.2158 131.712 27.2115C131.712 27.2072 131.712 27.2028 131.712 27.1985C131.712 27.1942 131.712 27.1898 131.712 27.1855C131.712 27.1812 131.712 27.1768 131.712 27.1725C131.712 27.1682 131.712 27.1638 131.712 27.1595C131.712 27.1551 131.712 27.1508 131.712 27.1465C131.712 27.1421 131.712 27.1378 131.712 27.1335C131.712 27.1291 131.712 27.1248 131.712 27.1205C131.712 27.1161 131.712 27.1118 131.712 27.1075C131.712 27.1031 131.712 27.0988 131.712 27.0945C131.712 27.0901 131.712 27.0858 131.712 27.0815C131.712 27.0771 131.712 27.0728 131.712 27.0685C131.712 27.0641 131.712 27.0598 131.712 27.0555C131.712 27.0511 131.712 27.0468 131.712 27.0425C131.712 27.0381 131.712 27.0338 131.712 27.0295C131.712 27.0251 131.712 27.0208 131.712 27.0165C131.712 27.0121 131.712 27.0078 131.712 27.0035C131.712 26.9991 131.712 26.9948 131.712 26.9905C131.712 26.9861 131.712 26.9818 131.712 26.9775C131.712 26.9731 131.712 26.9688 131.712 26.9645C131.712 26.9601 131.712 26.9558 131.712 26.9515C131.712 26.9471 131.712 26.9428 131.712 26.9385C131.712 26.9341 131.712 26.9298 131.712 26.9255C131.712 26.9212 131.712 26.9168 131.712 26.9125C131.712 26.9082 131.712 26.9038 131.712 26.8995C131.712 26.8952 131.712 26.8908 131.712 26.8865C131.712 26.8822 131.712 26.8778 131.712 26.8735C131.712 26.8692 131.712 26.8648 131.712 26.8605C131.712 26.8562 131.712 26.8519 131.712 26.8475C131.712 26.8432 131.712 26.8389 131.712 26.8345C131.712 26.8302 131.712 26.8259 131.712 26.8215C131.712 26.8172 131.712 26.8129 131.712 26.8086C131.712 26.8042 131.712 26.7999 131.712 26.7956C131.712 26.7912 131.712 26.7869 131.712 26.7826C131.712 26.7782 131.712 26.7739 131.712 26.7696C131.712 26.7653 131.712 26.7609 131.712 26.7566C131.712 26.7523 131.712 26.7479 131.712 26.7436C131.712 26.7393 131.712 26.735 131.712 26.7306C131.712 26.7263 131.712 26.722 131.712 26.7176C131.712 26.7133 131.712 26.709 131.712 26.7047C131.712 26.7003 131.712 26.696 131.712 26.6917C131.712 26.6873 131.712 26.683 131.712 26.6787C131.712 26.6744 131.712 26.67 131.712 26.6657C131.712 26.6614 131.712 26.657 131.712 26.6527C131.712 26.6484 131.712 26.6441 131.712 26.6397C131.712 26.6354 131.712 26.6311 131.712 26.6268C131.712 26.6224 131.712 26.6181 131.712 26.6138C131.712 26.6094 131.712 26.6051 131.712 26.6008C131.712 26.5965 131.712 26.5921 131.712 26.5878C131.712 26.5835 131.712 26.5792 131.712 26.5748C131.712 26.5705 131.712 26.5662 131.712 26.5619C131.712 26.5575 131.712 26.5532 131.712 26.5489C131.712 26.5445 131.712 26.5402 131.712 26.5359C131.712 26.5316 131.712 26.5272 131.712 26.5229C131.712 26.5186 131.712 26.5143 131.712 26.5099C131.712 26.5056 131.712 26.5013 131.712 26.497C131.712 26.4926 131.712 26.4883 131.712 26.484C131.712 26.4797 131.712 26.4753 131.712 26.471C131.712 26.4667 131.712 26.4624 131.712 26.458C131.712 26.4537 131.712 26.4494 131.712 26.4451C131.712 26.4407 131.712 26.4364 131.712 26.4321C131.712 26.4278 131.712 26.4234 131.712 26.4191C131.712 26.4148 131.712 26.4105 131.712 26.4061C131.712 26.4018 131.712 26.3975 131.712 26.3932C131.712 26.3888 131.712 26.3845 131.712 26.3802C131.712 26.3759 131.712 26.3716 131.712 26.3672C131.712 26.3629 131.712 26.3586 131.712 26.3543C131.712 26.3499 131.712 26.3456 131.712 26.3413C131.712 26.337 131.712 26.3326 131.712 26.3283C131.712 26.324 131.712 26.3197 131.712 26.3153C131.712 26.311 131.712 26.3067 131.712 26.3024C131.712 26.2981 131.712 26.2937 131.712 26.2894C131.712 26.2851 131.712 26.2808 131.712 26.2764C131.712 26.2721 131.712 26.2678 131.712 26.2635C131.712 26.2592 131.712 26.2548 131.712 26.2505C131.712 26.2462 131.712 26.2419 131.712 26.2375C131.712 26.2332 131.712 26.2289 131.712 26.2246C131.712 26.2203 131.712 26.2159 131.712 26.2116C131.712 26.2073 131.712 26.203 131.712 26.1987C131.712 26.1943 131.712 26.19 131.712 26.1857C131.712 26.1814 131.712 26.1771 131.712 26.1727C131.712 26.1684 131.712 26.1641 131.712 26.1598C131.712 26.1554 131.712 26.1511 131.712 26.1468C131.712 26.1425 131.712 26.1382 131.712 26.1338C131.712 26.1295 131.712 26.1252 131.712 26.1209C131.712 26.1166 131.712 26.1122 131.712 26.1079C131.712 26.1036 131.712 26.0993 131.712 26.095C131.712 26.0906 131.712 26.0863 131.712 26.082C131.712 26.0777 131.712 26.0734 131.712 26.069C131.712 26.0647 131.712 26.0604 131.712 26.0561C131.712 26.0518 131.712 26.0475 131.712 26.0431C131.712 26.0388 131.712 26.0345 131.712 26.0302C131.712 26.0259 131.712 26.0215 131.712 26.0172C131.712 26.0129 131.712 26.0086 131.712 26.0043C131.712 25.9999 131.712 25.9956 131.712 25.9913C131.712 25.987 131.712 25.9827 131.712 25.9784C131.712 25.974 131.712 25.9697 131.712 25.9654C131.712 25.9611 131.712 25.9568 131.712 25.9525C131.712 25.9481 131.712 25.9438 131.712 25.9395C131.712 25.9352 131.712 25.9309 131.712 25.9265C131.712 25.9222 131.712 25.9179 131.712 25.9136C131.712 25.9093 131.712 25.905 131.712 25.9006C131.712 25.8963 131.712 25.892 131.712 25.8877C131.712 25.8834 131.712 25.8791 131.712 25.8747C131.712 25.8704 131.712 25.8661 131.712 25.8618C131.712 25.8575 131.712 25.8532 131.712 25.8488C131.712 25.8445 131.712 25.8402 131.712 25.8359C131.712 25.8316 131.712 25.8273 131.712 25.823C131.712 25.8186 131.712 25.8143 131.712 25.81C131.712 25.8057 131.712 25.8014 131.712 25.7971C131.712 25.7927 131.712 25.7884 131.712 25.7841C131.712 25.7798 131.712 25.7755 131.712 25.7712C131.712 25.7669 131.712 25.7625 131.712 25.7582C131.712 25.7539 131.712 25.7496 131.712 25.7453C131.712 25.741 131.712 25.7366 131.712 25.7323C131.712 25.728 131.712 25.7237 131.712 25.7194C131.712 25.7151 131.712 25.7108 131.712 25.7064C131.712 25.7021 131.712 25.6978 131.712 25.6935C131.712 25.6892 131.712 25.6849 131.712 25.6806C131.712 25.6763 131.712 25.6719 131.712 25.6676C131.712 25.6633 131.712 25.659 131.712 25.6547C131.712 25.6504 131.712 25.6461 131.712 25.6417C131.712 25.6374 131.712 25.6331 131.712 25.6288C131.712 25.6245 131.712 25.6202 131.712 25.6159C131.712 25.6116 131.712 25.6072 131.712 25.6029C131.712 25.5986 131.712 25.5943 131.712 25.59C131.712 25.5857 131.712 25.5814 131.712 25.5771C131.712 25.5727 131.712 25.5684 131.712 25.5641C131.712 25.5598 131.712 25.5555 131.712 25.5512C131.712 25.5469 131.712 25.5426 131.712 25.5382C131.712 25.5339 131.712 25.5296 131.712 25.5253C131.712 25.521 131.712 25.5167 131.712 25.5124C131.712 25.5081 131.712 25.5038 131.712 25.4994C131.712 25.4951 131.712 25.4908 131.712 25.4865C131.712 25.4822 131.712 25.4779 131.712 25.4736C131.712 25.4693 131.712 25.465 131.712 25.4606C131.712 25.4563 131.712 25.452 131.712 25.4477C131.712 25.4434 131.712 25.4391 131.712 25.4348C131.712 25.4305 131.712 25.4262 131.712 25.4219C131.712 25.4175 131.712 25.4132 131.712 25.4089C131.712 25.4046 131.712 25.4003 131.712 25.396C131.712 25.3917 131.712 25.3874 131.712 25.3831C131.712 25.3788 131.712 25.3744 131.712 25.3701C131.712 25.3658 131.712 25.3615 131.712 25.3572C131.712 25.3529 131.712 25.3486 131.712 25.3443C131.712 25.34 131.712 25.3357 131.712 25.3314C131.712 25.3271 131.712 25.3227 131.712 25.3184C131.712 25.3141 131.712 25.3098 131.712 25.3055C131.712 25.3012 131.712 25.2969 131.712 25.2926C131.712 25.2883 131.712 25.284 131.712 25.2797C131.712 25.2754 131.712 25.271 131.712 25.2667C131.712 25.2624 131.712 25.2581 131.712 25.2538C131.712 25.2495 131.712 25.2452 131.712 25.2409C131.712 25.2366 131.712 25.2323 131.712 25.228C131.712 25.2237 131.712 25.2194 131.712 25.215C131.712 25.2107 131.712 25.2064 131.712 25.2021C131.712 25.1978 131.712 25.1935 131.712 25.1892C131.712 25.1849 131.712 25.1806 131.712 25.1763C131.712 25.172 131.712 25.1677 131.712 25.1634C131.712 25.1591 131.712 25.1548 131.712 25.1504C131.712 25.1461 131.712 25.1418 131.712 25.1375C131.712 25.1332 131.712 25.1289 131.712 25.1246C131.712 25.1203 131.712 25.116 131.712 25.1117C131.712 25.1074 131.712 25.1031 131.712 25.0988C131.712 25.0945 131.712 25.0902 131.712 25.0859C131.712 25.0816 131.712 25.0773 131.712 25.073C131.712 25.0686 131.712 25.0643 131.712 25.06C131.712 25.0557 131.712 25.0514 131.712 25.0471C131.712 25.0428 131.712 25.0385 131.712 25.0342C131.712 25.0299 131.712 25.0256 131.712 25.0213C131.712 25.017 131.712 25.0127 131.712 25.0084C131.712 25.0041 131.712 24.9998 131.712 24.9955C131.712 24.9912 131.712 24.9869 131.712 24.9826C131.712 24.9783 131.712 24.974 131.712 24.9697C131.712 24.9653 131.712 24.961 131.712 24.9567C131.712 24.9524 131.712 24.9481 131.712 24.9438C131.712 24.9395 131.712 24.9352 131.712 24.9309C131.712 24.9266 131.712 24.9223 131.712 24.918C131.712 24.9137 131.712 24.9094 131.712 24.9051C131.712 24.9008 131.712 24.8965 131.712 24.8922C131.712 24.8879 131.712 24.8836 131.712 24.8793C131.712 24.875 131.712 24.8707 131.712 24.8664C131.712 24.8621 131.712 24.8578 131.712 24.8535C131.712 24.8492 131.712 24.8449 131.712 24.8406C131.712 24.8363 131.712 24.832 131.712 24.8277C131.712 24.8234 131.712 24.8191 131.712 24.8148C131.712 24.8105 131.712 24.8062 131.712 24.8019C131.712 24.7976 131.712 24.7933 131.712 24.789C131.712 24.7847 131.712 24.7804 131.712 24.7761C131.712 24.7718 131.712 24.7675 131.712 24.7632C131.712 24.7589 131.712 24.7546 131.712 24.7503C131.712 24.746 131.712 24.7417 131.712 24.7374C131.712 24.7331 131.712 24.7288 131.712 24.7245C131.712 24.7202 131.712 24.7159 131.712 24.7116C131.712 24.7073 131.712 24.703 131.712 24.6987C131.712 24.6944 131.712 24.6901 131.712 24.6858C131.712 24.6815 131.712 24.6772 131.712 24.6729C131.712 24.6686 131.712 24.6643 131.712 24.66C131.712 24.6557 131.712 24.6514 131.712 24.6471C131.712 24.6428 131.712 24.6385 131.712 24.6342C131.712 24.6299 131.712 24.6256 131.712 24.6213C131.712 24.617 131.712 24.6127 131.712 24.6084C131.712 24.6041 131.712 24.5998 131.712 24.5955C131.712 24.5912 131.712 24.5869 131.712 24.5826C131.712 24.5783 131.712 24.574 131.712 24.5697C131.712 24.5654 131.712 24.5611 131.712 24.5568C131.712 24.5525 131.712 24.5482 131.712 24.5439C131.712 24.5396 131.712 24.5353 131.712 24.531C131.712 24.5267 131.712 24.5224 131.712 24.5181C131.712 24.5138 131.712 24.5095 131.712 24.5052C131.712 24.5009 131.712 24.4966 131.712 24.4923C131.712 24.4881 131.712 24.4838 131.712 24.4795C131.712 24.4752 131.712 24.4709 131.712 24.4666C131.712 24.4623 131.712 24.458 131.712 24.4537C131.712 24.4494 131.712 24.4451 131.712 24.4408C131.712 24.4365 131.712 24.4322 131.712 24.4279C131.712 24.4236 131.712 24.4193 131.712 24.415C131.712 24.4107 131.712 24.4064 131.712 24.4021C131.712 24.3978 131.712 24.3935 131.712 24.3892C131.712 24.385 131.712 24.3807 131.712 24.3764C131.712 24.3721 131.712 24.3678 131.712 24.3635C131.712 24.3592 131.712 24.3549 131.712 24.3506C131.712 24.3463 131.712 24.342 131.712 24.3377C131.712 24.3334 131.712 24.3291 131.712 24.3248C131.712 24.3205 131.712 24.3162 131.712 24.3119C131.712 24.3077 131.712 24.3034 131.712 24.2991C131.712 24.2948 131.712 24.2905 131.712 24.2862C131.712 24.2819 131.712 24.2776 131.712 24.2733C131.712 24.269 131.712 24.2647 131.712 24.2604C131.712 24.2561 131.712 24.2518 131.712 24.2475C131.712 24.2433 131.712 24.239 131.712 24.2347C131.712 24.2304 131.712 24.2261 131.712 24.2218C131.712 24.2175 131.712 24.2132 131.712 24.2089C131.712 24.2046 131.712 24.2003 131.712 24.196C131.712 24.1917 131.712 24.1875 131.712 24.1832C131.712 24.1789 131.712 24.1746 131.712 24.1703C131.712 24.166 131.712 24.1617 131.712 24.1574C131.712 24.1531 131.712 24.1488 131.712 24.1445H129.712C129.712 24.1488 129.712 24.1531 129.712 24.1574C129.712 24.1617 129.712 24.166 129.712 24.1703C129.712 24.1746 129.712 24.1789 129.712 24.1832C129.712 24.1875 129.712 24.1917 129.712 24.196C129.712 24.2003 129.712 24.2046 129.712 24.2089C129.712 24.2132 129.712 24.2175 129.712 24.2218C129.712 24.2261 129.712 24.2304 129.712 24.2347C129.712 24.239 129.712 24.2433 129.712 24.2475C129.712 24.2518 129.712 24.2561 129.712 24.2604C129.712 24.2647 129.712 24.269 129.712 24.2733C129.712 24.2776 129.712 24.2819 129.712 24.2862C129.712 24.2905 129.712 24.2948 129.712 24.2991C129.712 24.3034 129.712 24.3077 129.712 24.3119C129.712 24.3162 129.712 24.3205 129.712 24.3248C129.712 24.3291 129.712 24.3334 129.712 24.3377C129.712 24.342 129.712 24.3463 129.712 24.3506C129.712 24.3549 129.712 24.3592 129.712 24.3635C129.712 24.3678 129.712 24.3721 129.712 24.3764C129.712 24.3807 129.712 24.385 129.712 24.3892C129.712 24.3935 129.712 24.3978 129.712 24.4021C129.712 24.4064 129.712 24.4107 129.712 24.415C129.712 24.4193 129.712 24.4236 129.712 24.4279C129.712 24.4322 129.712 24.4365 129.712 24.4408C129.712 24.4451 129.712 24.4494 129.712 24.4537C129.712 24.458 129.712 24.4623 129.712 24.4666C129.712 24.4709 129.712 24.4752 129.712 24.4795C129.712 24.4838 129.712 24.4881 129.712 24.4923C129.712 24.4966 129.712 24.5009 129.712 24.5052C129.712 24.5095 129.712 24.5138 129.712 24.5181C129.712 24.5224 129.712 24.5267 129.712 24.531C129.712 24.5353 129.712 24.5396 129.712 24.5439C129.712 24.5482 129.712 24.5525 129.712 24.5568C129.712 24.5611 129.712 24.5654 129.712 24.5697C129.712 24.574 129.712 24.5783 129.712 24.5826C129.712 24.5869 129.712 24.5912 129.712 24.5955C129.712 24.5998 129.712 24.6041 129.712 24.6084C129.712 24.6127 129.712 24.617 129.712 24.6213C129.712 24.6256 129.712 24.6299 129.712 24.6342C129.712 24.6385 129.712 24.6428 129.712 24.6471C129.712 24.6514 129.712 24.6557 129.712 24.66C129.712 24.6643 129.712 24.6686 129.712 24.6729C129.712 24.6772 129.712 24.6815 129.712 24.6858C129.712 24.6901 129.712 24.6944 129.712 24.6987C129.712 24.703 129.712 24.7073 129.712 24.7116C129.712 24.7159 129.712 24.7202 129.712 24.7245C129.712 24.7288 129.712 24.7331 129.712 24.7374C129.712 24.7417 129.712 24.746 129.712 24.7503C129.712 24.7546 129.712 24.7589 129.712 24.7632C129.712 24.7675 129.712 24.7718 129.712 24.7761C129.712 24.7804 129.712 24.7847 129.712 24.789C129.712 24.7933 129.712 24.7976 129.712 24.8019C129.712 24.8062 129.712 24.8105 129.712 24.8148C129.712 24.8191 129.712 24.8234 129.712 24.8277C129.712 24.832 129.712 24.8363 129.712 24.8406C129.712 24.8449 129.712 24.8492 129.712 24.8535C129.712 24.8578 129.712 24.8621 129.712 24.8664C129.712 24.8707 129.712 24.875 129.712 24.8793C129.712 24.8836 129.712 24.8879 129.712 24.8922C129.712 24.8965 129.712 24.9008 129.712 24.9051C129.712 24.9094 129.712 24.9137 129.712 24.918C129.712 24.9223 129.712 24.9266 129.712 24.9309C129.712 24.9352 129.712 24.9395 129.712 24.9438C129.712 24.9481 129.712 24.9524 129.712 24.9567C129.712 24.961 129.712 24.9653 129.712 24.9697C129.712 24.974 129.712 24.9783 129.712 24.9826C129.712 24.9869 129.712 24.9912 129.712 24.9955C129.712 24.9998 129.712 25.0041 129.712 25.0084C129.712 25.0127 129.712 25.017 129.712 25.0213C129.712 25.0256 129.712 25.0299 129.712 25.0342C129.712 25.0385 129.712 25.0428 129.712 25.0471C129.712 25.0514 129.712 25.0557 129.712 25.06C129.712 25.0643 129.712 25.0686 129.712 25.073C129.712 25.0773 129.712 25.0816 129.712 25.0859C129.712 25.0902 129.712 25.0945 129.712 25.0988C129.712 25.1031 129.712 25.1074 129.712 25.1117C129.712 25.116 129.712 25.1203 129.712 25.1246C129.712 25.1289 129.712 25.1332 129.712 25.1375C129.712 25.1418 129.712 25.1461 129.712 25.1504C129.712 25.1548 129.712 25.1591 129.712 25.1634C129.712 25.1677 129.712 25.172 129.712 25.1763C129.712 25.1806 129.712 25.1849 129.712 25.1892C129.712 25.1935 129.712 25.1978 129.712 25.2021C129.712 25.2064 129.712 25.2107 129.712 25.215C129.712 25.2194 129.712 25.2237 129.712 25.228C129.712 25.2323 129.712 25.2366 129.712 25.2409C129.712 25.2452 129.712 25.2495 129.712 25.2538C129.712 25.2581 129.712 25.2624 129.712 25.2667C129.712 25.271 129.712 25.2754 129.712 25.2797C129.712 25.284 129.712 25.2883 129.712 25.2926C129.712 25.2969 129.712 25.3012 129.712 25.3055C129.712 25.3098 129.712 25.3141 129.712 25.3184C129.712 25.3227 129.712 25.3271 129.712 25.3314C129.712 25.3357 129.712 25.34 129.712 25.3443C129.712 25.3486 129.712 25.3529 129.712 25.3572C129.712 25.3615 129.712 25.3658 129.712 25.3701C129.712 25.3744 129.712 25.3788 129.712 25.3831C129.712 25.3874 129.712 25.3917 129.712 25.396C129.712 25.4003 129.712 25.4046 129.712 25.4089C129.712 25.4132 129.712 25.4175 129.712 25.4219C129.712 25.4262 129.712 25.4305 129.712 25.4348C129.712 25.4391 129.712 25.4434 129.712 25.4477C129.712 25.452 129.712 25.4563 129.712 25.4606C129.712 25.465 129.712 25.4693 129.712 25.4736C129.712 25.4779 129.712 25.4822 129.712 25.4865C129.712 25.4908 129.712 25.4951 129.712 25.4994C129.712 25.5038 129.712 25.5081 129.712 25.5124C129.712 25.5167 129.712 25.521 129.712 25.5253C129.712 25.5296 129.712 25.5339 129.712 25.5382C129.712 25.5426 129.712 25.5469 129.712 25.5512C129.712 25.5555 129.712 25.5598 129.712 25.5641C129.712 25.5684 129.712 25.5727 129.712 25.5771C129.712 25.5814 129.712 25.5857 129.712 25.59C129.712 25.5943 129.712 25.5986 129.712 25.6029C129.712 25.6072 129.712 25.6116 129.712 25.6159C129.712 25.6202 129.712 25.6245 129.712 25.6288C129.712 25.6331 129.712 25.6374 129.712 25.6417C129.712 25.6461 129.712 25.6504 129.712 25.6547C129.712 25.659 129.712 25.6633 129.712 25.6676C129.712 25.6719 129.712 25.6763 129.712 25.6806C129.712 25.6849 129.712 25.6892 129.712 25.6935C129.712 25.6978 129.712 25.7021 129.712 25.7064C129.712 25.7108 129.712 25.7151 129.712 25.7194C129.712 25.7237 129.712 25.728 129.712 25.7323C129.712 25.7366 129.712 25.741 129.712 25.7453C129.712 25.7496 129.712 25.7539 129.712 25.7582C129.712 25.7625 129.712 25.7669 129.712 25.7712C129.712 25.7755 129.712 25.7798 129.712 25.7841C129.712 25.7884 129.712 25.7927 129.712 25.7971C129.712 25.8014 129.712 25.8057 129.712 25.81C129.712 25.8143 129.712 25.8186 129.712 25.823C129.712 25.8273 129.712 25.8316 129.712 25.8359C129.712 25.8402 129.712 25.8445 129.712 25.8488C129.712 25.8532 129.712 25.8575 129.712 25.8618C129.712 25.8661 129.712 25.8704 129.712 25.8747C129.712 25.8791 129.712 25.8834 129.712 25.8877C129.712 25.892 129.712 25.8963 129.712 25.9006C129.712 25.905 129.712 25.9093 129.712 25.9136C129.712 25.9179 129.712 25.9222 129.712 25.9265C129.712 25.9309 129.712 25.9352 129.712 25.9395C129.712 25.9438 129.712 25.9481 129.712 25.9525C129.712 25.9568 129.712 25.9611 129.712 25.9654C129.712 25.9697 129.712 25.974 129.712 25.9784C129.712 25.9827 129.712 25.987 129.712 25.9913C129.712 25.9956 129.712 25.9999 129.712 26.0043C129.712 26.0086 129.712 26.0129 129.712 26.0172C129.712 26.0215 129.712 26.0259 129.712 26.0302C129.712 26.0345 129.712 26.0388 129.712 26.0431C129.712 26.0475 129.712 26.0518 129.712 26.0561C129.712 26.0604 129.712 26.0647 129.712 26.069C129.712 26.0734 129.712 26.0777 129.712 26.082C129.712 26.0863 129.712 26.0906 129.712 26.095C129.712 26.0993 129.712 26.1036 129.712 26.1079C129.712 26.1122 129.712 26.1166 129.712 26.1209C129.712 26.1252 129.712 26.1295 129.712 26.1338C129.712 26.1382 129.712 26.1425 129.712 26.1468C129.712 26.1511 129.712 26.1554 129.712 26.1598C129.712 26.1641 129.712 26.1684 129.712 26.1727C129.712 26.1771 129.712 26.1814 129.712 26.1857C129.712 26.19 129.712 26.1943 129.712 26.1987C129.712 26.203 129.712 26.2073 129.712 26.2116C129.712 26.2159 129.712 26.2203 129.712 26.2246C129.712 26.2289 129.712 26.2332 129.712 26.2375C129.712 26.2419 129.712 26.2462 129.712 26.2505C129.712 26.2548 129.712 26.2592 129.712 26.2635C129.712 26.2678 129.712 26.2721 129.712 26.2764C129.712 26.2808 129.712 26.2851 129.712 26.2894C129.712 26.2937 129.712 26.2981 129.712 26.3024C129.712 26.3067 129.712 26.311 129.712 26.3153C129.712 26.3197 129.712 26.324 129.712 26.3283C129.712 26.3326 129.712 26.337 129.712 26.3413C129.712 26.3456 129.712 26.3499 129.712 26.3543C129.712 26.3586 129.712 26.3629 129.712 26.3672C129.712 26.3716 129.712 26.3759 129.712 26.3802C129.712 26.3845 129.712 26.3888 129.712 26.3932C129.712 26.3975 129.712 26.4018 129.712 26.4061C129.712 26.4105 129.712 26.4148 129.712 26.4191C129.712 26.4234 129.712 26.4278 129.712 26.4321C129.712 26.4364 129.712 26.4407 129.712 26.4451C129.712 26.4494 129.712 26.4537 129.712 26.458C129.712 26.4624 129.712 26.4667 129.712 26.471C129.712 26.4753 129.712 26.4797 129.712 26.484C129.712 26.4883 129.712 26.4926 129.712 26.497C129.712 26.5013 129.712 26.5056 129.712 26.5099C129.712 26.5143 129.712 26.5186 129.712 26.5229C129.712 26.5272 129.712 26.5316 129.712 26.5359C129.712 26.5402 129.712 26.5445 129.712 26.5489C129.712 26.5532 129.712 26.5575 129.712 26.5619C129.712 26.5662 129.712 26.5705 129.712 26.5748C129.712 26.5792 129.712 26.5835 129.712 26.5878C129.712 26.5921 129.712 26.5965 129.712 26.6008C129.712 26.6051 129.712 26.6094 129.712 26.6138C129.712 26.6181 129.712 26.6224 129.712 26.6268C129.712 26.6311 129.712 26.6354 129.712 26.6397C129.712 26.6441 129.712 26.6484 129.712 26.6527C129.712 26.657 129.712 26.6614 129.712 26.6657C129.712 26.67 129.712 26.6744 129.712 26.6787C129.712 26.683 129.712 26.6873 129.712 26.6917C129.712 26.696 129.712 26.7003 129.712 26.7047C129.712 26.709 129.712 26.7133 129.712 26.7176C129.712 26.722 129.712 26.7263 129.712 26.7306C129.712 26.735 129.712 26.7393 129.712 26.7436C129.712 26.7479 129.712 26.7523 129.712 26.7566C129.712 26.7609 129.712 26.7653 129.712 26.7696C129.712 26.7739 129.712 26.7782 129.712 26.7826C129.712 26.7869 129.712 26.7912 129.712 26.7956C129.712 26.7999 129.712 26.8042 129.712 26.8086C129.712 26.8129 129.712 26.8172 129.712 26.8215C129.712 26.8259 129.712 26.8302 129.712 26.8345C129.712 26.8389 129.712 26.8432 129.712 26.8475C129.712 26.8519 129.712 26.8562 129.712 26.8605C129.712 26.8648 129.712 26.8692 129.712 26.8735C129.712 26.8778 129.712 26.8822 129.712 26.8865C129.712 26.8908 129.712 26.8952 129.712 26.8995C129.712 26.9038 129.712 26.9082 129.712 26.9125C129.712 26.9168 129.712 26.9212 129.712 26.9255C129.712 26.9298 129.712 26.9341 129.712 26.9385C129.712 26.9428 129.712 26.9471 129.712 26.9515C129.712 26.9558 129.712 26.9601 129.712 26.9645C129.712 26.9688 129.712 26.9731 129.712 26.9775C129.712 26.9818 129.712 26.9861 129.712 26.9905C129.712 26.9948 129.712 26.9991 129.712 27.0035C129.712 27.0078 129.712 27.0121 129.712 27.0165C129.712 27.0208 129.712 27.0251 129.712 27.0295C129.712 27.0338 129.712 27.0381 129.712 27.0425C129.712 27.0468 129.712 27.0511 129.712 27.0555C129.712 27.0598 129.712 27.0641 129.712 27.0685C129.712 27.0728 129.712 27.0771 129.712 27.0815C129.712 27.0858 129.712 27.0901 129.712 27.0945C129.712 27.0988 129.712 27.1031 129.712 27.1075C129.712 27.1118 129.712 27.1161 129.712 27.1205C129.712 27.1248 129.712 27.1291 129.712 27.1335C129.712 27.1378 129.712 27.1421 129.712 27.1465C129.712 27.1508 129.712 27.1551 129.712 27.1595C129.712 27.1638 129.712 27.1682 129.712 27.1725C129.712 27.1768 129.712 27.1812 129.712 27.1855C129.712 27.1898 129.712 27.1942 129.712 27.1985C129.712 27.2028 129.712 27.2072 129.712 27.2115C129.712 27.2158 129.712 27.2202 129.712 27.2245C129.712 27.2288 129.712 27.2332 129.712 27.2375C129.712 27.2419 129.712 27.2462 129.712 27.2505C129.712 27.2549 129.712 27.2592 129.712 27.2635C129.712 27.2679 129.712 27.2722 129.712 27.2765C129.712 27.2809 129.712 27.2852 129.712 27.2896C129.712 27.2939 129.712 27.2982 129.712 27.3026C129.712 27.3069 129.712 27.3112 129.712 27.3156C129.712 27.3199 129.712 27.3243 129.712 27.3286C129.712 27.3329 129.712 27.3373 129.712 27.3416C129.712 27.3459 129.712 27.3503 129.712 27.3546C129.712 27.359 129.712 27.3633 129.712 27.3676C129.712 27.372 129.712 27.3763 129.712 27.3806C129.712 27.385 129.712 27.3893 129.712 27.3937C129.712 27.398 129.712 27.4023 129.712 27.4067C129.712 27.411 129.712 27.4154 129.712 27.4197C129.712 27.424 129.712 27.4284 129.712 27.4327C129.712 27.437 129.712 27.4414 129.712 27.4457C129.712 27.4501 129.712 27.4544 129.712 27.4587C129.712 27.4631 129.712 27.4674 129.712 27.4718C129.712 27.4761 129.712 27.4804 129.712 27.4848C129.712 27.4891 129.712 27.4935 129.712 27.4978C129.712 27.5021 129.712 27.5065 129.712 27.5108C129.712 27.5152 129.712 27.5195 129.712 27.5238C129.712 27.5282 129.712 27.5325 129.712 27.5369C129.712 27.5412 129.712 27.5455 129.712 27.5499C129.712 27.5542 129.712 27.5586 129.712 27.5629C129.712 27.5672 129.712 27.5716 129.712 27.5759C129.712 27.5803 129.712 27.5846 129.712 27.5889C129.712 27.5933 129.712 27.5976 129.712 27.602C129.712 27.6063 129.712 27.6107 129.712 27.615C129.712 27.6193 129.712 27.6237 129.712 27.628C129.712 27.6324 129.712 27.6367 129.712 27.641C129.712 27.6454 129.712 27.6497 129.712 27.6541C129.712 27.6584 129.712 27.6628 129.712 27.6671C129.712 27.6714 129.712 27.6758 129.712 27.6801C129.712 27.6845 129.712 27.6888 129.712 27.6931C129.712 27.6975 129.712 27.7018 129.712 27.7062C129.712 27.7105 129.712 27.7149 129.712 27.7192C129.712 27.7235 129.712 27.7279 129.712 27.7322C129.712 27.7366 129.712 27.7409 129.712 27.7453C129.712 27.7496 129.712 27.754 129.712 27.7583C129.712 27.7626 129.712 27.767 129.712 27.7713C129.712 27.7757 129.712 27.78 129.712 27.7844C129.712 27.7887 129.712 27.793 129.712 27.7974C129.712 27.8017 129.712 27.8061 129.712 27.8104C129.712 27.8148 129.712 27.8191 129.712 27.8235C129.712 27.8278 129.712 27.8321 129.712 27.8365C129.712 27.8408 129.712 27.8452 129.712 27.8495C129.712 27.8539 129.712 27.8582 129.712 27.8626C129.712 27.8669 129.712 27.8712 129.712 27.8756C129.712 27.8799 129.712 27.8843 129.712 27.8886C129.712 27.893 129.712 27.8973 129.712 27.9017C129.712 27.906 129.712 27.9104 129.712 27.9147C129.712 27.919 129.712 27.9234 129.712 27.9277C129.712 27.9321 129.712 27.9364 129.712 27.9408C129.712 27.9451 129.712 27.9495 129.712 27.9538C129.712 27.9582 129.712 27.9625 129.712 27.9669C129.712 27.9712 129.712 27.9755 129.712 27.9799C129.712 27.9842 129.712 27.9886 129.712 27.9929C129.712 27.9973 129.712 28.0016 129.712 28.006C129.712 28.0103 129.712 28.0147 129.712 28.019C129.712 28.0234 129.712 28.0277 129.712 28.0321C129.712 28.0364 129.712 28.0408 129.712 28.0451C129.712 28.0494 129.712 28.0538 129.712 28.0581C129.712 28.0625 129.712 28.0668 129.712 28.0712C129.712 28.0755 129.712 28.0799 129.712 28.0842C129.712 28.0886 129.712 28.0929 129.712 28.0973C129.712 28.1016 129.712 28.106 129.712 28.1103C129.712 28.1147 129.712 28.119 129.712 28.1234C129.712 28.1277 129.712 28.1321 129.712 28.1364C129.712 28.1408 129.712 28.1451 129.712 28.1495C129.712 28.1538 129.712 28.1582 129.712 28.1625C129.712 28.1669 129.712 28.1712 129.712 28.1756C129.712 28.1799 129.712 28.1843 129.712 28.1886C129.712 28.193 129.712 28.1973 129.712 28.2017C129.712 28.206 129.712 28.2104 129.712 28.2147C129.712 28.2191 129.712 28.2234 129.712 28.2278C129.712 28.2321 129.712 28.2365 129.712 28.2408C129.712 28.2452 129.712 28.2495 129.712 28.2539C129.712 28.2582 129.712 28.2626 129.712 28.2669C129.712 28.2713 129.712 28.2756 129.712 28.28C129.712 28.2843 129.712 28.2887 129.712 28.293C129.712 28.2974 129.712 28.3017 129.712 28.3061C129.712 28.3104 129.712 28.3148 129.712 28.3191C129.712 28.3235 129.712 28.3278 129.712 28.3322C129.712 28.3365 129.712 28.3409 129.712 28.3452C129.712 28.3496 129.712 28.3539 129.712 28.3583C129.712 28.3626 129.712 28.367 129.712 28.3713C129.712 28.3757 129.712 28.38 129.712 28.3844C129.712 28.3888 129.712 28.3931 129.712 28.3975C129.712 28.4018 129.712 28.4062 129.712 28.4105C129.712 28.4149 129.712 28.4192 129.712 28.4236C129.712 28.4279 129.712 28.4323 129.712 28.4366C129.712 28.441 129.712 28.4453 129.712 28.4497C129.712 28.4541 129.712 28.4584 129.712 28.4628C129.712 28.4671 129.712 28.4715 129.712 28.4758C129.712 28.4802 129.712 28.4845 129.712 28.4889C129.712 28.4932 129.712 28.4976 129.712 28.5019C129.712 28.5063 129.712 28.5106 129.712 28.515C129.712 28.5194 129.712 28.5237 129.712 28.5281C129.712 28.5324 129.712 28.5368 129.712 28.5411C129.712 28.5455 129.712 28.5498 129.712 28.5542C129.712 28.5585 129.712 28.5629 129.712 28.5673C129.712 28.5716 129.712 28.576 129.712 28.5803C129.712 28.5847 129.712 28.589 129.712 28.5934C129.712 28.5977 129.712 28.6021 129.712 28.6065C129.712 28.6108 129.712 28.6152 129.712 28.6195C129.712 28.6239 129.712 28.6282 129.712 28.6326C129.712 28.6369 129.712 28.6413 129.712 28.6457C129.712 28.65 129.712 28.6544 129.712 28.6587C129.712 28.6631 129.712 28.6674 129.712 28.6718C129.712 28.6762 129.712 28.6805 129.712 28.6849C129.712 28.6892 129.712 28.6936 129.712 28.6979C129.712 28.7023 129.712 28.7067 129.712 28.711C129.712 28.7154 129.712 28.7197 129.712 28.7241C129.712 28.7284 129.712 28.7328 129.712 28.7372C129.712 28.7415 129.712 28.7459 129.712 28.7502C129.712 28.7546 129.712 28.7589 129.712 28.7633C129.712 28.7677 129.712 28.772 129.712 28.7764C129.712 28.7807 129.712 28.7851 129.712 28.7894C129.712 28.7938 129.712 28.7982 129.712 28.8025C129.712 28.8069 129.712 28.8112 129.712 28.8156C129.712 28.82 129.712 28.8243 129.712 28.8287C129.712 28.833 129.712 28.8374 129.712 28.8418C129.712 28.8461 129.712 28.8505 129.712 28.8548C129.712 28.8592 129.712 28.8635 129.712 28.8679C129.712 28.8723 129.712 28.8766 129.712 28.881C129.712 28.8853 129.712 28.8897 129.712 28.8941C129.712 28.8984 129.712 28.9028 129.712 28.9071C129.712 28.9115 129.712 28.9159 129.712 28.9202C129.712 28.9246 129.712 28.9289 129.712 28.9333C129.712 28.9377 129.712 28.942 129.712 28.9464C129.712 28.9507 129.712 28.9551 129.712 28.9595C129.712 28.9638 129.712 28.9682 129.712 28.9725C129.712 28.9769 129.712 28.9813 129.712 28.9856C129.712 28.99 129.712 28.9944 129.712 28.9987C129.712 29.0031 129.712 29.0074 129.712 29.0118C129.712 29.0162 129.712 29.0205 129.712 29.0249C129.712 29.0292 129.712 29.0336 129.712 29.038C129.712 29.0423 129.712 29.0467 129.712 29.0511C129.712 29.0554 129.712 29.0598 129.712 29.0641C129.712 29.0685 129.712 29.0729 129.712 29.0772C129.712 29.0816 129.712 29.086 129.712 29.0903C129.712 29.0947 129.712 29.099 129.712 29.1034C129.712 29.1078 129.712 29.1121 129.712 29.1165C129.712 29.1209 129.712 29.1252 129.712 29.1296C129.712 29.1339 129.712 29.1383 129.712 29.1427C129.712 29.147 129.712 29.1514 129.712 29.1558C129.712 29.1601 129.712 29.1645 129.712 29.1688C129.712 29.1732 129.712 29.1776 129.712 29.1819C129.712 29.1863 129.712 29.1907 129.712 29.195C129.712 29.1994 129.712 29.2038 129.712 29.2081C129.712 29.2125 129.712 29.2169 129.712 29.2212C129.712 29.2256 129.712 29.2299 129.712 29.2343C129.712 29.2387 129.712 29.243 129.712 29.2474C129.712 29.2518 129.712 29.2561 129.712 29.2605C129.712 29.2649 129.712 29.2692 129.712 29.2736C129.712 29.278 129.712 29.2823 129.712 29.2867C129.712 29.2911 129.712 29.2954 129.712 29.2998C129.712 29.3041 129.712 29.3085 129.712 29.3129C129.712 29.3172 129.712 29.3216 129.712 29.326C129.712 29.3303 129.712 29.3347 129.712 29.3391C129.712 29.3434 129.712 29.3478 129.712 29.3522C129.712 29.3565 129.712 29.3609 129.712 29.3653C129.712 29.3696 129.712 29.374 129.712 29.3784C129.712 29.3827 129.712 29.3871 129.712 29.3915C129.712 29.3958 129.712 29.4002 129.712 29.4046C129.712 29.4089 129.712 29.4133 129.712 29.4177C129.712 29.422 129.712 29.4264 129.712 29.4308C129.712 29.4351 129.712 29.4395 129.712 29.4439C129.712 29.4482 129.712 29.4526 129.712 29.457C129.712 29.4613 129.712 29.4657 129.712 29.4701C129.712 29.4745 129.712 29.4788 129.712 29.4832C129.712 29.4876 129.712 29.4919 129.712 29.4963C129.712 29.5007 129.712 29.505 129.712 29.5094C129.712 29.5138 129.712 29.5181 129.712 29.5225C129.712 29.5269 129.712 29.5312 129.712 29.5356C129.712 29.54 129.712 29.5443 129.712 29.5487C129.712 29.5531 129.712 29.5575 129.712 29.5618C129.712 29.5662 129.712 29.5706 129.712 29.5749C129.712 29.5793 129.712 29.5837 129.712 29.588C129.712 29.5924 129.712 29.5968 129.712 29.6012C129.712 29.6055 129.712 29.6099 129.712 29.6143C129.712 29.6186 129.712 29.623 129.712 29.6274C129.712 29.6317 129.712 29.6361 129.712 29.6405C129.712 29.6449 129.712 29.6492 129.712 29.6536C129.712 29.658 129.712 29.6623 129.712 29.6667C129.712 29.6711 129.712 29.6754 129.712 29.6798C129.712 29.6842 129.712 29.6886 129.712 29.6929C129.712 29.6973 129.712 29.7017 129.712 29.706C129.712 29.7104 129.712 29.7148 129.712 29.7192C129.712 29.7235 129.712 29.7279 129.712 29.7323C129.712 29.7366 129.712 29.741 129.712 29.7454C129.712 29.7498 129.712 29.7541 129.712 29.7585C129.712 29.7629 129.712 29.7672 129.712 29.7716C129.712 29.776 129.712 29.7804 129.712 29.7847C129.712 29.7891 129.712 29.7935 129.712 29.7979C129.712 29.8022 129.712 29.8066 129.712 29.811C129.712 29.8153 129.712 29.8197 129.712 29.8241C129.712 29.8285 129.712 29.8328 129.712 29.8372C129.712 29.8416 129.712 29.846 129.712 29.8503C129.712 29.8547 129.712 29.8591 129.712 29.8634C129.712 29.8678 129.712 29.8722 129.712 29.8766C129.712 29.8809 129.712 29.8853 129.712 29.8897C129.712 29.8941 129.712 29.8984 129.712 29.9028C129.712 29.9072 129.712 29.9116 129.712 29.9159C129.712 29.9203 129.712 29.9247 129.712 29.9291C129.712 29.9334 129.712 29.9378 129.712 29.9422C129.712 29.9466 129.712 29.9509 129.712 29.9553C129.712 29.9597 129.712 29.9641 129.712 29.9684C129.712 29.9728 129.712 29.9772 129.712 29.9816C129.712 29.9859 129.712 29.9903 129.712 29.9947C129.712 29.9991 129.712 30.0034 129.712 30.0078C129.712 30.0122 129.712 30.0166 129.712 30.0209C129.712 30.0253 129.712 30.0297 129.712 30.0341C129.712 30.0384 129.712 30.0428 129.712 30.0472C129.712 30.0516 129.712 30.0559 129.712 30.0603C129.712 30.0647 129.712 30.0691 129.712 30.0734C129.712 30.0778 129.712 30.0822 129.712 30.0866C129.712 30.091 129.712 30.0953 129.712 30.0997C129.712 30.1041 129.712 30.1085 129.712 30.1128C129.712 30.1172 129.712 30.1216 129.712 30.126C129.712 30.1303 129.712 30.1347 129.712 30.1391C129.712 30.1435 129.712 30.1479 129.712 30.1522C129.712 30.1566 129.712 30.161 129.712 30.1654C129.712 30.1697 129.712 30.1741 129.712 30.1785C129.712 30.1829 129.712 30.1873 129.712 30.1916C129.712 30.196 129.712 30.2004 129.712 30.2048C129.712 30.2091 129.712 30.2135 129.712 30.2179C129.712 30.2223 129.712 30.2267 129.712 30.231C129.712 30.2354 129.712 30.2398 129.712 30.2442C129.712 30.2486 129.712 30.2529 129.712 30.2573C129.712 30.2617 129.712 30.2661 129.712 30.2705C129.712 30.2748 129.712 30.2792 129.712 30.2836C129.712 30.288 129.712 30.2923 129.712 30.2967C129.712 30.3011 129.712 30.3055 129.712 30.3099C129.712 30.3142 129.712 30.3186 129.712 30.323C129.712 30.3274 129.712 30.3318 129.712 30.3361C129.712 30.3405 129.712 30.3449 129.712 30.3493C129.712 30.3537 129.712 30.358 129.712 30.3624C129.712 30.3668 129.712 30.3712 129.712 30.3756C129.712 30.38 129.712 30.3843 129.712 30.3887C129.712 30.3931 129.712 30.3975 129.712 30.4019C129.712 30.4062 129.712 30.4106 129.712 30.415C129.712 30.4194 129.712 30.4238 129.712 30.4281C129.712 30.4325 129.712 30.4369 129.712 30.4413C129.712 30.4457 129.712 30.4501 129.712 30.4544C129.712 30.4588 129.712 30.4632 129.712 30.4676C129.712 30.472 129.712 30.4763 129.712 30.4807C129.712 30.4851 129.712 30.4895 129.712 30.4939C129.712 30.4983 129.712 30.5026 129.712 30.507C129.712 30.5114 129.712 30.5158 129.712 30.5202C129.712 30.5246 129.712 30.5289 129.712 30.5333C129.712 30.5377 129.712 30.5421 129.712 30.5465C129.712 30.5509 129.712 30.5552 129.712 30.5596C129.712 30.564 129.712 30.5684 129.712 30.5728C129.712 30.5772 129.712 30.5815 129.712 30.5859C129.712 30.5903 129.712 30.5947 129.712 30.5991C129.712 30.6035 129.712 30.6078 129.712 30.6122C129.712 30.6166 129.712 30.621 129.712 30.6254C129.712 30.6298 129.712 30.6341 129.712 30.6385C129.712 30.6429 129.712 30.6473 129.712 30.6517C129.712 30.6561 129.712 30.6605 129.712 30.6648C129.712 30.6692 129.712 30.6736 129.712 30.678C129.712 30.6824 129.712 30.6868 129.712 30.6911C129.712 30.6955 129.712 30.6999 129.712 30.7043C129.712 30.7087 129.712 30.7131 129.712 30.7175C129.712 30.7218 129.712 30.7262 129.712 30.7306C129.712 30.735 129.712 30.7394 129.712 30.7438C129.712 30.7482 129.712 30.7525 129.712 30.7569C129.712 30.7613 129.712 30.7657 129.712 30.7701C129.712 30.7745 129.712 30.7789 129.712 30.7833C129.712 30.7876 129.712 30.792 129.712 30.7964C129.712 30.8008 129.712 30.8052 129.712 30.8096H131.712ZM131.712 24.1663C131.76 21.9347 131.857 19.703 132.003 17.4713L130.007 17.3412C129.86 19.6017 129.761 21.8622 129.712 24.1228L131.712 24.1663ZM130.119 16.943C129.001 19.0811 128.035 20.8185 127.22 22.1607L128.93 23.1987C129.775 21.8065 130.763 20.0283 131.891 17.8695L130.119 16.943ZM127.229 22.1469C126.405 23.4554 125.657 24.5887 124.985 25.5486L126.624 26.6955C127.319 25.7023 128.085 24.5407 128.921 23.2125L127.229 22.1469ZM124.981 25.555L93.4137 71.4046L95.061 72.5388L126.628 26.6892L124.981 25.555Z" fill="white" mask="url(#path-1-outside-1_489_421)"/>
</g>
</svg>
