<svg width="150" height="150" viewBox="0 0 150 150" fill="none" xmlns="http://www.w3.org/2000/svg">
<g opacity="0.1">
<path d="M30.4688 128.906C30.2468 128.904 30.0262 128.872 29.8125 128.812C29.3257 128.671 28.898 128.374 28.5938 127.969C28.2895 127.563 28.125 127.07 28.125 126.562V81.0117H2.34375C1.72215 81.0117 1.12601 80.7648 0.686468 80.3252C0.24693 79.8857 0 79.2896 0 78.668V23.4375C0 22.8159 0.24693 22.2198 0.686468 21.7802C1.12601 21.3407 1.72215 21.0938 2.34375 21.0938H60.9375C61.5591 21.0938 62.1552 21.3407 62.5948 21.7802C63.0343 22.2198 63.2812 22.8159 63.2812 23.4375V78.6211C63.2814 79.065 63.1554 79.4999 62.918 79.875L32.4492 127.816C32.2378 128.15 31.9453 128.425 31.5991 128.616C31.2528 128.806 30.864 128.906 30.4688 128.906ZM4.6875 76.2773H30.4688C31.0904 76.2773 31.6865 76.5243 32.126 76.9638C32.5656 77.4034 32.8125 77.9995 32.8125 78.6211V118.465L58.5938 77.9297V25.7812H4.6875V76.2773Z" fill="#141C21"/>
<path d="M117.188 128.906C116.966 128.904 116.745 128.872 116.531 128.812C116.044 128.671 115.617 128.374 115.313 127.969C115.008 127.563 114.844 127.07 114.844 126.562V81.0117H89.0625C88.4409 81.0117 87.8448 80.7648 87.4052 80.3252C86.9657 79.8857 86.7188 79.2896 86.7188 78.668V23.4375C86.7188 22.8159 86.9657 22.2198 87.4052 21.7802C87.8448 21.3407 88.4409 21.0938 89.0625 21.0938H147.656C148.278 21.0938 148.874 21.3407 149.314 21.7802C149.753 22.2198 150 22.8159 150 23.4375V78.6211C150 79.065 149.874 79.4999 149.637 79.875L119.168 127.816C118.957 128.15 118.664 128.425 118.318 128.616C117.972 128.806 117.583 128.906 117.188 128.906ZM91.4062 76.2773H117.188C117.809 76.2773 118.405 76.5243 118.845 76.9638C119.284 77.4034 119.531 77.9995 119.531 78.6211V118.465L145.312 77.9297V25.7812H91.4062V76.2773Z" fill="#141C21"/>
</g>
</svg>
